<svg xmlns="http://www.w3.org/2000/svg" viewBox="0 0 143.4 26.47"><defs><style>.cls-1{fill:#cf2a33;}.cls-2{fill:#fff;}</style></defs><title>CTA_TakeTheChallenge</title><g id="Layer_2" data-name="Layer 2"><g id="Layer_1-2" data-name="Layer 1"><rect class="cls-1" width="143.4" height="26.47" rx="3.78" ry="3.78"/><path class="cls-2" d="M10.05,11.28H7.77V9.43h6.68v1.85H12.16V17H10.05Z"/><path class="cls-2" d="M17,9.37h2L22.3,17H20l-.55-1.36H16.55L16,17H13.79ZM18.88,14,18,11.88,17.17,14Z"/><path class="cls-2" d="M23,9.43h2.11v3.09l2.62-3.09h2.5L27.4,12.7l3,4.34H27.84l-1.91-2.83-.77.86v2H23Z"/><path class="cls-2" d="M31,9.43h6.12v1.79h-4v1.15h3.65V14H33.08v1.21h4.09V17H31Z"/><path class="cls-2" d="M43.12,11.28H40.84V9.43h6.68v1.85H45.23V17H43.12Z"/><path class="cls-2" d="M48.45,9.43h2.11v2.85h2.71V9.43h2.11V17H53.26V14.15H50.56V17H48.45Z"/><path class="cls-2" d="M56.73,9.43h6.12v1.79h-4v1.15h3.65V14H58.81v1.21H62.9V17H56.73Z"/><path class="cls-2" d="M66.74,13.26v0a3.91,3.91,0,0,1,4-4A3.73,3.73,0,0,1,74,10.86l-1.59,1.23a2,2,0,0,0-1.66-.89,1.88,1.88,0,0,0-1.82,2v0a1.88,1.88,0,0,0,1.82,2,2.08,2.08,0,0,0,1.72-.92L74,15.48a4,4,0,0,1-7.3-2.22Z"/><path class="cls-2" d="M74.94,9.43h2.11v2.85h2.71V9.43h2.11V17H79.76V14.15H77.05V17H74.94Z"/><path class="cls-2" d="M85.85,9.37h2L91.13,17H88.87l-.55-1.36H85.38L84.83,17H82.61ZM87.7,14l-.85-2.16L86,14Z"/><path class="cls-2" d="M91.87,9.43H94v5.76h3.69V17h-5.8Z"/><path class="cls-2" d="M98.58,9.43h2.11v5.76h3.69V17h-5.8Z"/><path class="cls-2" d="M105.28,9.43h6.12v1.79h-4v1.15H111V14h-3.65v1.21h4.09V17h-6.18Z"/><path class="cls-2" d="M112.54,9.43h2l3.13,4v-4h2.09V17h-1.85l-3.25-4.18V17h-2.09Z"/><path class="cls-2" d="M120.82,13.26v0a4,4,0,0,1,4.1-4A4.44,4.44,0,0,1,128,10.39l-1.24,1.49a2.69,2.69,0,0,0-1.84-.72A2,2,0,0,0,123,13.25v0A2,2,0,0,0,125,15.38a2.15,2.15,0,0,0,1.22-.32v-.92h-1.5V12.59h3.5V16A5.15,5.15,0,0,1,125,17.19,3.91,3.91,0,0,1,120.82,13.26Z"/><path class="cls-2" d="M129.45,9.43h6.12v1.79h-4v1.15h3.65V14h-3.65v1.21h4.09V17h-6.18Z"/></g></g></svg>