<svg xmlns="http://www.w3.org/2000/svg" xmlns:xlink="http://www.w3.org/1999/xlink" viewBox="0 0 36.1 42.49"><defs><style>.cls-1,.cls-7,.cls-8{fill:none;}.cls-2{fill:#dbe7f5;}.cls-3{fill:#938150;}.cls-4{fill:#b9c9d7;}.cls-5{clip-path:url(#clip-path);}.cls-6{fill:#77612f;}.cls-7,.cls-8{stroke:#000;stroke-linecap:round;stroke-width:2px;}.cls-7{stroke-linejoin:round;}.cls-8{stroke-miterlimit:10;}</style><clipPath id="clip-path"><path id="_Clipping_Path_" data-name="&lt;Clipping Path&gt;" class="cls-1" d="M21.66,3.76s9.77,16,0,37.73l9-1.39L35,2.85Z"/></clipPath></defs><title>Icon_Shot</title><g id="Layer_2" data-name="Layer 2"><g id="Layer_1-2" data-name="Layer 1"><path id="_Path_" data-name="&lt;Path&gt;" class="cls-2" d="M18,.78,35,2.06,33,20.54,29.26,40.17s-21.6,1.64-22.61-.1S4.4,23.29,4.4,23.29L1.61,2.11Z"/><path id="_Path_2" data-name="&lt;Path&gt;" class="cls-3" d="M5.82,16.92s17.42-5,25.82-9.39L26.29,29.95l-3.38,2H11.68L9.5,29.65Z"/><path id="_Path_3" data-name="&lt;Path&gt;" class="cls-4" d="M21.66,3.76s9.77,16,0,37.73l9-1.39L35,2.85Z"/><g class="cls-5"><path id="_Path_4" data-name="&lt;Path&gt;" class="cls-6" d="M5.82,16.92s17.42-5,25.82-9.39L26.29,29.95l-3.38,2H11.68L9.5,29.65Z"/></g><g id="_Group_" data-name="&lt;Group&gt;"><path id="_Path_5" data-name="&lt;Path&gt;" class="cls-7" d="M1,2.26,6.82,39.51s9.36,4.46,23.29,0l5-37.24S17.15,5.87,1,2.26Z"/><path id="_Path_6" data-name="&lt;Path&gt;" class="cls-8" d="M35.1,2.26A115.07,115.07,0,0,0,1,2.26"/><path id="_Path_7" data-name="&lt;Path&gt;" class="cls-7" d="M4,2.85S2.66,3,2.94,4.24,8.17,29,10.18,30.47s10,2.5,16.12,0c0,0,.9-.76,5.93-25.85,0,0,.59-1.77-.76-1.77"/></g></g></g></svg>