<svg xmlns="http://www.w3.org/2000/svg" viewBox="0 0 8.58 8.58"><defs><style>.cls-1{fill:#cf2a33;}</style></defs><title>Icon_Refresh</title><g id="Layer_2" data-name="Layer 2"><g id="Layer_1-2" data-name="Layer 1"><path class="cls-1" d="M8.58,3.22a.36.36,0,0,1-.36.36H5.72a.36.36,0,0,1-.33-.22A.35.35,0,0,1,5.47,3l.77-.77a2.86,2.86,0,1,0-1.95,5A2.83,2.83,0,0,0,6.55,6,.18.18,0,0,1,6.67,6,.21.21,0,0,1,6.81,6l.77.77a.18.18,0,0,1,0,.24,4.29,4.29,0,1,1-3.3-7,4.34,4.34,0,0,1,3,1.18L8,.46A.35.35,0,0,1,8.36.39a.36.36,0,0,1,.22.33Z"/></g></g></svg>