<svg xmlns="http://www.w3.org/2000/svg" viewBox="0 0 63.3 182.07"><defs><style>.cls-1{fill:#c6e8ef;}.cls-2{fill:#80d2ef;}.cls-3{fill:none;stroke:#000;stroke-linecap:round;stroke-linejoin:round;stroke-width:2px;}</style></defs><title>Icon_WaterBottle</title><g id="Layer_2" data-name="Layer 2"><g id="Layer_1-2" data-name="Layer 1"><g id="_Group_" data-name="&lt;Group&gt;"><g id="_Group_2" data-name="&lt;Group&gt;"><path class="cls-1" d="M56.92,58.38a3,3,0,0,0,1-2.67,9.38,9.38,0,0,1,0-1.3,1,1,0,0,0-.59-1.1c-.92-.51-1-1-.26-1.76.3-.35.83-.63.91-1,.43-2,.84-4.06-.67-5.84-1-1.13-2.05-2.16-3-3.32-2.86-3.58-5.53-7.32-8.54-10.76a11.55,11.55,0,0,1-3.24-6.38,13.07,13.07,0,0,1,0-2.21c0-.46.27-.68.79-.66a1.52,1.52,0,0,0,1.6-.91c-.28-.23-.7-.4-.7-.59,0-.48,0-1,0-1.45h.07a.55.55,0,0,0,.55-.55v-.11a.55.55,0,0,0-.55-.55h-.05c0-.36,0-.71,0-1.07h0a.55.55,0,0,0,.55-.55v-.11a.55.55,0,0,0-.55-.55h0c0-.41,0-.92,0-1.49h.06a.55.55,0,0,0,.55-.55V12.8a.55.55,0,0,0-.55-.55h-.11c0-.43,0-.87-.05-1.32h.16a.55.55,0,0,0,.55-.55v-.11a.55.55,0,0,0-.55-.55H44c0-.52-.05-1-.08-1.49h.3a.55.55,0,0,0,.55-.55V7.6A.55.55,0,0,0,44.26,7h-.39a4.58,4.58,0,0,0-.21-1.4A12.69,12.69,0,0,0,40.5,5C34.74,5,29,5,23.22,5a3.09,3.09,0,0,0-.65,0c-1,.22-2,.42-3,.73A4.51,4.51,0,0,0,19.36,7H19a.55.55,0,0,0-.55.55v.11a.55.55,0,0,0,.55.55h.26c0,.46,0,1-.06,1.49H19a.55.55,0,0,0-.55.55v.11a.55.55,0,0,0,.55.55h.15c0,.44,0,.89,0,1.32H19a.55.55,0,0,0-.55.55v.11a.55.55,0,0,0,.55.55h.09c0,.56,0,1.06,0,1.49H19a.55.55,0,0,0-.55.55v.11a.55.55,0,0,0,.55.55h.08c0,.35.08.7.11,1.06H19a.55.55,0,0,0-.55.55v.11a.55.55,0,0,0,.55.55h.22a4,4,0,0,1-.91,2.36,5.54,5.54,0,0,0,1.6.58c.95,0,1.07.54,1,1.28a13.37,13.37,0,0,1-.23,1.93c-.42,1.59-.58,3.26-1.83,4.57S16.45,32,15.27,33.5C12.41,37,10,40.91,6.61,44A4.52,4.52,0,0,0,5,47.46c0,1.56-.07,3.08,1.36,4.23.67.54.52,1.06-.19,1.56-.25.18-.68.38-.67.57,0,1.56-.52,3.24.88,4.56a7.55,7.55,0,0,1,.89,1.25l-.35,0a7.83,7.83,0,0,0-1.15,1.87c-.52,1.89-.56,3.72,1.13,5.19.67.58.56.93-.17,1.46-.3.22-.74.53-.75.8,0,1.72-.44,3.55,1.31,4.85.62.46.4,1-.29,1.45-.29.18-.7.48-.72.75-.1,2-.87,4.09,1.13,5.69.66.53.53,1-.23,1.42a1.29,1.29,0,0,0-.74,1.32c0,1.65-.16,3.28,1.42,4.45.42.31.52.86-.19,1.26-.41.23-.93.74-.94,1.14-.08,1.91-.79,4,1.27,5.46.35.25.61.84,0,1.15a2.26,2.26,0,0,0-1.34,2.64,2.34,2.34,0,0,1-.05.74,3.19,3.19,0,0,0,1,3.43c.62.49.68,1.12-.13,1.66-.39.26-.92.72-.91,1.08,0,1.89-.87,4,1.24,5.44a.25.25,0,0,1,.06.07c.34.5.55.87-.2,1.33a2.59,2.59,0,0,0-1.12,1.59c-.27,1.83-.27,3.65,1.42,5,.84.67.66,1.23-.29,1.73a2,2,0,0,0-1,.94,13,13,0,0,0-.37,2.57,2.71,2.71,0,0,0,1,2.71,2.19,2.19,0,0,1,.55.62c.34.52.36,1-.34,1.24-.32.13-.76.37-.83.63-.47,1.95-1.14,3.94.56,5.68a1.75,1.75,0,0,1,.39.63c.18.52.26,1-.48,1.23A1.49,1.49,0,0,0,6.44,140c0,1.77-.6,3.61.78,5.21.47.54.73,1.32-.28,1.81a1.42,1.42,0,0,0-.52.84,4.64,4.64,0,0,0,.7,4.64c.46.54.7,1.18-.18,1.68a1.18,1.18,0,0,0-.54.72,18.16,18.16,0,0,0-.5,3.71,46,46,0,0,0,.63,5.9c.44,2.67.67,5.48,3.33,7.14a1.76,1.76,0,0,1,.25.27A7,7,0,0,0,16,174.16a3,3,0,0,1,2.9,1.08,2.82,2.82,0,0,0,2.24.86,23.18,23.18,0,0,1,3.18.42,21.77,21.77,0,0,0,2.91.51c2.79.06,5.57.06,8.36,0a29.53,29.53,0,0,0,3.56-.55,13.06,13.06,0,0,1,2.64-.36,3.15,3.15,0,0,0,2.93-1.19,2.13,2.13,0,0,1,2.38-.76,5.59,5.59,0,0,0,2.54-.23,9.34,9.34,0,0,0,4.6-2.94,6.31,6.31,0,0,0,1.41-2,24.63,24.63,0,0,0,1.1-4.58,68.7,68.7,0,0,0,.63-7.48,4.15,4.15,0,0,0-1-2.67c-.69-.74-.7-1.21-.14-1.87,1.13-1.34,1-2.88.64-4.4-.11-.47-.64-.83-.93-1.27a1.15,1.15,0,0,1-.25-.77,3,3,0,0,1,.57-.94,6,6,0,0,0,.26-5.71,1.56,1.56,0,0,0-.29-.36c-1-.83-1-1.06-.17-2a3.89,3.89,0,0,0,.92-3.45c-.09-.58-.25-1.15-.35-1.72a1.13,1.13,0,0,0-.9-1c-.66-.17-.69-.64-.39-1.15a3.14,3.14,0,0,1,.63-.79,2.51,2.51,0,0,0,.93-2.13,26.29,26.29,0,0,0-.33-3,1.37,1.37,0,0,0-.69-.82c-1.28-.63-1.42-1.14-.35-2.09a3.4,3.4,0,0,0,1.2-2.51,14.84,14.84,0,0,0-.07-2.49,1.56,1.56,0,0,0-.66-1c-1.16-.74-1.28-1.24-.21-2.11A2.94,2.94,0,0,0,56.89,110c0-.65-.18-1.3-.15-1.94a1.66,1.66,0,0,0-.72-1.49c-1-.84-1.06-1.17-.07-2.11a2.37,2.37,0,0,0,.79-2,22,22,0,0,1-.1-2.6,1.53,1.53,0,0,0-.77-1.53c-1.08-.72-1.14-1.15-.18-2a2.82,2.82,0,0,0,1-2.46c0-.68-.12-1.36-.1-2a1.71,1.71,0,0,0-.86-1.61c-.73-.48-.83-1-.13-1.54,1.71-1.31,1.2-3.11,1.24-4.79,0-.17-.25-.4-.43-.52-1.16-.78-1.14-1-.19-2.11a3.52,3.52,0,0,0,.9-1.83A18.59,18.59,0,0,0,57,76c0-.23-.32-.51-.57-.63-1.06-.55-1.19-.91-.31-1.75a3.82,3.82,0,0,0,1.18-3.44,4.15,4.15,0,0,0,0-.83,2.16,2.16,0,0,0-.57-1c-.88-.66-1-1.06-.23-1.76,1.59-1.37,1.4-3.13,1.22-4.89a1.82,1.82,0,0,0-.67-1.14C55.92,59.68,55.83,59.36,56.92,58.38Z"/></g><path id="_Path_" data-name="&lt;Path&gt;" class="cls-2" d="M5.19,59.36l0,12.27L5.91,94.5,6,122.44l-.12,23.5L4.63,163.7l2.85,7.74s13.13,6.81,20.38,6.81a94.64,94.64,0,0,0,15.69-1.69l9.75-2.75A8.84,8.84,0,0,0,57.37,168c.67-4,.34-54.43-.5-76,0-2,1-3.93,1.06-5.77.16-14.7.31-24.3.38-25.46.17-2.77,5.46-9.1-24.4-8-20.31.77-26.93,2.47-29,4.73C3.93,58.59,5.1,58.09,5.19,59.36Z"/><g id="_Group_3" data-name="&lt;Group&gt;"><path d="M22.85,5h8.47c3.06,0,6.13,0,9.19,0a12.69,12.69,0,0,1,3.16.6A4.58,4.58,0,0,1,43.87,7h.39a.55.55,0,0,1,.55.55v.11a.55.55,0,0,1-.55.55H44c0,.47.06,1,.08,1.49h.22a.55.55,0,0,1,.55.55v.11a.55.55,0,0,1-.55.55H44.1c0,.44,0,.89.05,1.32h.11a.55.55,0,0,1,.55.55v.11a.55.55,0,0,1-.55.55H44.2c0,.57,0,1.07,0,1.49h0a.55.55,0,0,1,.55.55v.11a.55.55,0,0,1-.55.55h0c0,.35,0,.71,0,1.07h.05a.55.55,0,0,1,.55.55v.11a.55.55,0,0,1-.55.55h-.07c0,.48,0,1,0,1.45,0,.19.42.37.7.59a1.5,1.5,0,0,1-1.51.92h-.14c-.49,0-.71.22-.74.66a13.08,13.08,0,0,0,0,2.21,11.55,11.55,0,0,0,3.24,6.38c3,3.44,5.68,7.18,8.54,10.76.92,1.16,2,2.18,3,3.32,1.5,1.78,1.1,3.83.67,5.84-.08.39-.61.67-.91,1-.69.8-.66,1.25.26,1.76a1,1,0,0,1,.59,1.1,9.37,9.37,0,0,0,0,1.3,3,3,0,0,1-1,2.67c-1.09,1-1,1.3.16,2.16a1.82,1.82,0,0,1,.67,1.14c.18,1.76.37,3.52-1.22,4.89-.81.7-.65,1.1.23,1.76a2.16,2.16,0,0,1,.57,1,4.15,4.15,0,0,1,0,.83,3.82,3.82,0,0,1-1.18,3.44c-.88.84-.75,1.21.31,1.75.24.12.55.4.57.63a18.58,18.58,0,0,1,.1,3.43,3.52,3.52,0,0,1-.9,1.83c-1,1.07-1,1.33.19,2.11.18.12.43.35.43.52,0,1.68.47,3.49-1.24,4.79-.7.54-.61,1.06.13,1.54a1.71,1.71,0,0,1,.86,1.61c0,.68.07,1.36.1,2a2.82,2.82,0,0,1-1,2.46c-1,.82-.9,1.25.18,2a1.53,1.53,0,0,1,.77,1.53,22,22,0,0,0,.1,2.6,2.37,2.37,0,0,1-.79,2c-1,.94-1,1.27.07,2.11a1.66,1.66,0,0,1,.72,1.49c0,.64.12,1.29.15,1.94a2.94,2.94,0,0,1-1.08,2.62c-1.06.87-.94,1.37.21,2.11a1.56,1.56,0,0,1,.66,1,14.83,14.83,0,0,1,.07,2.49,3.4,3.4,0,0,1-1.2,2.51c-1.07,1-.93,1.46.35,2.09a1.37,1.37,0,0,1,.69.82,26.29,26.29,0,0,1,.33,3,2.51,2.51,0,0,1-.93,2.13,3.14,3.14,0,0,0-.63.79c-.3.51-.27,1,.39,1.15a1.13,1.13,0,0,1,.9,1c.11.58.27,1.14.35,1.72a3.9,3.9,0,0,1-.92,3.45c-.87.94-.8,1.17.17,2a1.56,1.56,0,0,1,.29.36,6,6,0,0,1-.26,5.71,3,3,0,0,0-.57.94,1.15,1.15,0,0,0,.25.77c.29.44.81.8.93,1.27.37,1.53.49,3.07-.64,4.4-.55.66-.55,1.13.14,1.87a4.15,4.15,0,0,1,1,2.67,68.7,68.7,0,0,1-.63,7.48,24.63,24.63,0,0,1-1.1,4.58,6.31,6.31,0,0,1-1.41,2,9.34,9.34,0,0,1-4.6,2.94,7.66,7.66,0,0,1-1.86.3,3,3,0,0,1-.68-.07,3.14,3.14,0,0,0-.71-.09,2,2,0,0,0-1.67.85,3,3,0,0,1-2.6,1.19h-.53a16.19,16.19,0,0,0-2.43.37,29.54,29.54,0,0,1-3.56.55q-2.34.08-4.67.07-1.84,0-3.68,0a21.78,21.78,0,0,1-2.91-.51,23.18,23.18,0,0,0-3.18-.42,2.82,2.82,0,0,1-2.24-.86,2.89,2.89,0,0,0-2.31-1.12,4.48,4.48,0,0,0-.59,0,6.27,6.27,0,0,1-.83.06,7.23,7.23,0,0,1-5.08-2.32,1.76,1.76,0,0,0-.25-.27C7.2,170,7,167.16,6.53,164.48a46.05,46.05,0,0,1-.63-5.9,18.17,18.17,0,0,1,.5-3.71,1.18,1.18,0,0,1,.54-.72c.88-.5.64-1.14.18-1.68a4.64,4.64,0,0,1-.7-4.64,1.42,1.42,0,0,1,.52-.84c1-.5.75-1.27.28-1.81-1.38-1.6-.82-3.45-.78-5.21a1.49,1.49,0,0,1,.81-1.08c.74-.28.65-.71.48-1.23a1.75,1.75,0,0,0-.39-.63c-1.69-1.75-1-3.74-.56-5.68.07-.27.51-.51.83-.63.71-.28.68-.71.34-1.24a2.19,2.19,0,0,0-.55-.62,2.71,2.71,0,0,1-1-2.71,13,13,0,0,1,.37-2.57,2,2,0,0,1,1-.94c1-.51,1.13-1.06.29-1.73-1.69-1.35-1.69-3.16-1.42-5a2.59,2.59,0,0,1,1.12-1.59c.75-.46.54-.83.2-1.33a.25.25,0,0,0-.06-.07c-2.12-1.42-1.22-3.56-1.24-5.44,0-.36.53-.82.91-1.08.8-.54.74-1.17.13-1.66a3.19,3.19,0,0,1-1-3.43,2.34,2.34,0,0,0,.05-.74A2.26,2.26,0,0,1,8,97.92c.62-.31.36-.91,0-1.15-2.07-1.45-1.35-3.54-1.27-5.46,0-.4.53-.91.94-1.14.71-.4.61-.95.19-1.26-1.58-1.17-1.44-2.8-1.42-4.45a1.29,1.29,0,0,1,.74-1.32c.76-.4.89-.89.23-1.42C5.42,80.12,6.19,78,6.29,76c0-.26.43-.56.72-.75.69-.43.9-1,.29-1.45C5.54,72.53,6,70.71,6,69c0-.27.45-.58.75-.8.72-.53.83-.88.17-1.46-1.69-1.47-1.65-3.3-1.13-5.19a7.83,7.83,0,0,1,1.15-1.87l.35,0a7.56,7.56,0,0,0-.89-1.25c-1.4-1.32-.87-3-.88-4.56,0-.19.43-.4.67-.57.71-.5.87-1,.19-1.56C4.93,50.54,5,49,5,47.46A4.52,4.52,0,0,1,6.61,44c3.36-3.12,5.8-7,8.65-10.53,1.19-1.47,2.31-3,3.61-4.36s1.41-3,1.83-4.57a13.37,13.37,0,0,0,.23-1.93c.08-.74,0-1.24-1-1.28a5.54,5.54,0,0,1-1.6-.58,4,4,0,0,0,.91-2.36H19a.55.55,0,0,1-.55-.55v-.11a.55.55,0,0,1,.55-.55h.19c0-.35-.07-.71-.11-1.06H19a.55.55,0,0,1-.55-.55v-.11a.55.55,0,0,1,.55-.55h.07c0-.42,0-.93,0-1.49H19a.55.55,0,0,1-.55-.55V12.8a.55.55,0,0,1,.55-.55h.11c0-.43,0-.87,0-1.32H19a.55.55,0,0,1-.55-.55v-.11A.55.55,0,0,1,19,9.74h.19c0-.52,0-1,.06-1.49H19a.55.55,0,0,1-.55-.55V7.6A.55.55,0,0,1,19,7h.32a4.51,4.51,0,0,1,.17-1.29c1-.31,2-.51,3-.73a1.29,1.29,0,0,1,.28,0m0-5A6.21,6.21,0,0,0,21.5.14L21,.25C20.09.44,19.08.66,18,1a4.7,4.7,0,0,0-3.15,2.94A5.52,5.52,0,0,0,13.5,7.6v.11A5.54,5.54,0,0,0,13.65,9a5.54,5.54,0,0,0-.15,1.29v.11a5.54,5.54,0,0,0,.13,1.2,5.54,5.54,0,0,0-.13,1.2v.11a5.54,5.54,0,0,0,.15,1.29,5.54,5.54,0,0,0-.15,1.29v.11a5.55,5.55,0,0,0,.11,1.08,5.55,5.55,0,0,0-.11,1.08v.11a5.55,5.55,0,0,0,.14,1.24,5,5,0,0,0,1.85,5.76,4.3,4.3,0,0,1-.27.86c-1.08,1.13-2,2.33-2.94,3.49l-.9,1.13c-1,1.18-1.85,2.37-2.71,3.53a47.57,47.57,0,0,1-5.45,6.48A9.45,9.45,0,0,0,0,47.48v.23a11.66,11.66,0,0,0,.72,4.55,5.15,5.15,0,0,0-.23,1.6c0,.15,0,.4,0,.67a10,10,0,0,0,.7,5c-.08.2-.15.42-.21.64a10.26,10.26,0,0,0,.29,7.16A5.27,5.27,0,0,0,1,68.92c0,.21,0,.42,0,.63a11.11,11.11,0,0,0,.61,4.8,5.33,5.33,0,0,0-.27,1.43c0,.23,0,.53-.08.85a11,11,0,0,0,.55,5.73,7.07,7.07,0,0,0-.31,2.05v.31a11.75,11.75,0,0,0,.66,4.62,5.61,5.61,0,0,0-.36,1.76c0,.26,0,.52-.07.78a11.12,11.12,0,0,0,.49,5.29,7.47,7.47,0,0,0-.53,3.52,9,9,0,0,0,.4,4.63,5.43,5.43,0,0,0-.44,2.22c0,.17,0,.5-.06.8a10.54,10.54,0,0,0,.55,5.23,6.7,6.7,0,0,0-.46,1.63,11.29,11.29,0,0,0,.59,6.2,5.8,5.8,0,0,0-.3.8,16.76,16.76,0,0,0-.54,3.45v.11A8.43,8.43,0,0,0,2,129.89c0,.1-.05.19-.07.27l-.1.38a11.28,11.28,0,0,0,.08,7.2,5.83,5.83,0,0,0-.46,2.09c0,.27,0,.54-.06.81a11.6,11.6,0,0,0,.46,5.11q-.12.31-.23.67a10.1,10.1,0,0,0,.1,6.64,5.6,5.6,0,0,0-.25.94c0,.24-.09.48-.14.73a17.46,17.46,0,0,0-.44,4,50.85,50.85,0,0,0,.69,6.54l.1.62c.43,2.74,1.08,6.81,4.92,9.55a12.11,12.11,0,0,0,8.57,3.75l.64,0a7.9,7.9,0,0,0,5.24,1.91,13,13,0,0,1,1.71.23l.78.13c.25,0,.5.1.74.15a13.91,13.91,0,0,0,2.85.41c1.29,0,2.57,0,3.79,0,1.65,0,3.28,0,4.84-.08a19.54,19.54,0,0,0,3.19-.43l1-.18,1-.18c.23,0,.55-.11.68-.12h.53a8.05,8.05,0,0,0,5.36-1.89h.3a12.31,12.31,0,0,0,3.12-.46A14.26,14.26,0,0,0,58,174.31l.09-.1a10.38,10.38,0,0,0,2.35-3.66A29.67,29.67,0,0,0,61.73,165a72.62,72.62,0,0,0,.67-8,9.07,9.07,0,0,0-.84-3.91,10.47,10.47,0,0,0,.19-6.31,5.89,5.89,0,0,0-.32-1,11.51,11.51,0,0,0-.05-8,9.29,9.29,0,0,0,.56-5.06c-.08-.52-.18-1-.27-1.35,0-.18-.08-.35-.11-.53a6.87,6.87,0,0,0-.27-1,7.48,7.48,0,0,0,.61-3.49,31,31,0,0,0-.4-3.61,5.74,5.74,0,0,0-.42-1.36,8.46,8.46,0,0,0,.65-3,19.41,19.41,0,0,0-.1-3.34,6,6,0,0,0-.4-1.5,8.34,8.34,0,0,0,.66-3.78c0-.45-.07-.84-.11-1.15,0-.14,0-.32,0-.4a6.77,6.77,0,0,0-.49-2.82,7.5,7.5,0,0,0,.5-3.19c0-.25,0-.51-.05-.77a10.9,10.9,0,0,1,0-1.24,6.72,6.72,0,0,0-.49-3.06,8.15,8.15,0,0,0,.56-3.47c0-.28,0-.56-.05-.84s0-.65,0-.86a7,7,0,0,0-.39-2.53,10.62,10.62,0,0,0,.67-4.71c0-.23,0-.46,0-.69a5.22,5.22,0,0,0-.31-1.91,7.55,7.55,0,0,0,.57-2.18,20.85,20.85,0,0,0-.07-4l0-.32a5.31,5.31,0,0,0-.3-1.37,9,9,0,0,0,.62-4.31A6,6,0,0,0,62,67.68L62,67.53a11.49,11.49,0,0,0,.74-6.3,6.53,6.53,0,0,0-.47-1.85,8.35,8.35,0,0,0,.64-4v-.16c0-.17,0-.39,0-.47a6.34,6.34,0,0,0-.27-2.34,5.61,5.61,0,0,0,.23-.79c.48-2.25,1.38-6.43-1.74-10.12-.51-.61-1-1.15-1.51-1.67s-1-1.05-1.37-1.54c-1-1.22-2-2.49-2.9-3.72-1.83-2.39-3.73-4.85-5.79-7.21a9.69,9.69,0,0,1-1.73-2.52,6.43,6.43,0,0,0,1.76-2.42A5,5,0,0,0,49.69,19a5.55,5.55,0,0,0,.12-1.14v-.11a5.55,5.55,0,0,0-.11-1.08,5.55,5.55,0,0,0,.11-1.08v-.11a5.54,5.54,0,0,0-.15-1.29,5.54,5.54,0,0,0,.15-1.29V12.8a5.54,5.54,0,0,0-.13-1.2,5.54,5.54,0,0,0,.13-1.2v-.11A5.54,5.54,0,0,0,49.65,9a5.54,5.54,0,0,0,.15-1.29V7.6A5.53,5.53,0,0,0,48.3,3.8,4.71,4.71,0,0,0,45,.83l-.15,0A16.41,16.41,0,0,0,40.55,0c-3.35,0-6.7,0-9.24,0H22.85ZM3.78,64.15h0Z"/></g><path id="_Path_2" data-name="&lt;Path&gt;" class="cls-3" d="M4.91,56.5s27.95-7.39,53.54-.85"/><path id="_Path_3" data-name="&lt;Path&gt;" class="cls-3" d="M18.37,23.92s10.57-2.81,26.1-.83"/></g></g></g></svg>