<svg xmlns="http://www.w3.org/2000/svg" viewBox="0 0 49.62 181.72"><defs><style>.cls-1{fill:#482c1d;}.cls-2{fill:#6b5b2e;}.cls-3{fill:none;stroke:#000;stroke-linecap:round;stroke-linejoin:round;stroke-width:5px;}</style></defs><title>Icon_Beer</title><g id="Layer_2" data-name="Layer 2"><g id="Layer_1-2" data-name="Layer 1"><path id="_Compound_Path_" data-name="&lt;Compound Path&gt;" class="cls-1" d="M34.95,13.59c0-.14,0-.45,0-1-.14-1.36-.21-7.74-1.73-8.53s-6-.17-8.37-.17-6.87-1-8.43-.24-1.55,7.57-1.69,8.93c0,.52,0,.83,0,1ZM46.57,173.66c0-2.88,1.23-82.68,0-87.26C45,80.58,41.05,75.83,38.76,70.9s-3.14-29.37-3.87-34.33C34.1,31.21,33.57,23,33.83,21.43c.71-.7,1.06-.88.53-3.52-.24-1.21-.47-2.76-.69-4.18H15.95c-.22,1.42-.45,3-.69,4.18-.53,2.64-.17,2.82.53,3.52.26,1.59-.27,9.77-1.06,15.14-.73,5-1.58,29.4-3.87,34.33S4.61,80.58,3.05,86.39c-1.23,4.58,0,84.39,0,87.26,0,0,2.86,5.56,21.76,5.56C45,179.22,46.57,173.66,46.57,173.66Z"/><path class="cls-2" d="M15.9,14.09a5.33,5.33,0,0,1-1.5-.87c-.28-.37,2.38-8.29,2.38-8.29s5.79-1.6,4.67-.22-1.54,8.64-1.54,8.64,13,.38,8.38.88-6,2.38-6.12,6a338.67,338.67,0,0,1-5.87,38.13C14.15,68.46,37.52,70,31.77,72,21.65,72,19,72.84,16,73.87s-3,4.35-5,13.94-.75,54.66-1,64.35,3.38,11.31,20.13,12.56,15.75,9,15.75,9l-1.37,2.38-7.62,2.25-7,.5H18.77L12.52,178l-6.75-1.87-3-2.62V87.21l3.75-9.62L9.9,72.21l2.25-4,4-46.13L14.52,20l1.38-5.87"/><path id="_Compound_Path_2" data-name="&lt;Compound Path&gt;" class="cls-3" d="M34.95,13.59c0-.14,0-.45,0-1-.14-1.36-.63-8.62-2.15-9.41s-5.58-.7-7.95-.7-6.41-.11-8,.7-2,8-2.15,9.41c0,.52,0,.83,0,1ZM46.57,173.66c0-2.88,1.23-82.68,0-87.26C45,80.58,41.05,75.83,38.76,70.9s-3.14-29.37-3.87-34.33C34.1,31.21,33.57,23,33.83,21.43c.71-.7,1.06-.88.53-3.52-.24-1.21-.47-2.76-.69-4.18H15.95c-.22,1.42-.45,3-.69,4.18-.53,2.64-.17,2.82.53,3.52.26,1.59-.27,9.77-1.06,15.14-.73,5-1.58,29.4-3.87,34.33S4.61,80.58,3.05,86.39c-1.23,4.58,0,84.39,0,87.26,0,0,2.86,5.56,21.76,5.56C45,179.22,46.57,173.66,46.57,173.66Z"/></g></g></svg>