<svg xmlns="http://www.w3.org/2000/svg" xmlns:xlink="http://www.w3.org/1999/xlink" viewBox="0 0 132.95 190.97"><defs><style>.cls-1{fill:none;}.cls-2{fill:#f0d67d;}.cls-3{fill:#bca566;}.cls-3,.cls-6{stroke:#000;stroke-linecap:round;stroke-linejoin:round;stroke-width:2px;}.cls-4,.cls-6{fill:#9e8659;}.cls-5{fill:#863837;}.cls-7{fill:#cea645;}.cls-8{fill:#5e2929;}.cls-9{clip-path:url(#clip-path);}.cls-10{fill:#231f20;opacity:0.2;}.cls-11{clip-path:url(#clip-path-2);}</style><clipPath id="clip-path"><path class="cls-1" d="M7.3,19.8S7.1,27,12.47,30.34c0,0,18.88-9.94,29-9.54,0,0,.6.6,1.79-2.78s5,.6,5,.6a11.78,11.78,0,0,0,9.94.6c5.37-2.19,15.11-1.59,22.26.4s22.86,6.56,32.4,5.76S122.38,28,122.38,28L127.95,13S93.56.72,45.26,8.67C17,15,7.3,19.8,7.3,19.8Z"/></clipPath><clipPath id="clip-path-2"><path class="cls-1" d="M12.47,30.34A89.68,89.68,0,0,1,23,62.81s-.8-.67,2.58,3.5c0,0,11.33,24.25,14.11,29s8.15,10.53,6,16.7,3.18,7.75,3.18,7.75,3.18,1,8.55,14.51,4.77,18.68,2,22.66S61,165.1,61,165.1s2.39-6.36,4.37-7.16,2.78,8.94,3.18,10.34S69.91,180.8,73.88,186c0,0,2.78-8.75,4.57-11.73s1.39-9.54,1.39-10.14,2.78,1.39,7-11.73a121.25,121.25,0,0,1,10.14-23.06s1.19-8.75,1.19-10.34,4.57,2.78,4-5.57-5.37-17.76,1.19-26.17,8.35-.1,8.75-12S116.82,42.86,122.38,28s-13.32-15.11-13.32-15.11l-56.85-2L38.9,14.24l-18.49,8Z"/></clipPath></defs><title>Icon_Pizza</title><g id="Layer_2" data-name="Layer 2"><g id="Layer_1-2" data-name="Layer 1"><path class="cls-2" d="M73.88,188.47a2.5,2.5,0,0,1-2-1c-3.6-4.68-4.91-13-5.54-17.06-.1-.61-.2-1.3-.25-1.49a21.88,21.88,0,0,1-.42-2.39c-.14-.92-.4-2.73-.72-4.26A31.37,31.37,0,0,0,63.31,166a2.5,2.5,0,0,1-1.78,1.56,2.46,2.46,0,0,1-.56.06,2.5,2.5,0,0,1-1.73-.69c-2-2-5.09-6.86-1.91-11.39,1.87-2.67,3.24-6.44-2.26-20.3-4.16-10.48-6.76-12.78-7.23-13.13a8.17,8.17,0,0,1-4.39-3.82,8.72,8.72,0,0,1-.14-7.07c1.34-3.77-1.28-7.72-3.82-11.54-.7-1.06-1.36-2.06-2-3.06C34.86,92,24.78,70.49,23.45,67.65c-2.48-3.07-3.29-4.1-3-5.29a88.08,88.08,0,0,0-10.1-30.73,2.5,2.5,0,0,1,.35-3l8-8.15a2.49,2.49,0,0,1,.8-.55l18.49-8a2.45,2.45,0,0,1,.37-.13L51.6,8.44a2.51,2.51,0,0,1,.61-.08l56.93,2c.37,0,10.63.18,14.92,6.43,2.21,3.22,2.43,7.27.65,12-5.31,14.23-9.78,34.65-10.18,46.5-.22,6.7-.84,8.8-4.51,9.83-1.1.31-2.46.69-4.76,3.64-4.14,5.3-3,11.18-1.76,17.39a59.16,59.16,0,0,1,1.09,7.06c.24,3.31-.21,5.37-1.44,6.7a4.11,4.11,0,0,1-2.7,1.3c-.3,2.89-.89,7.31-1,8.42a2.5,2.5,0,0,1-.33.95,120,120,0,0,0-9.9,22.53c-2.6,8.19-4.86,11.26-6.81,12.51,0,4.59-.55,7.83-1.78,9.88-1.34,2.24-3.58,8.84-4.33,11.2a2.5,2.5,0,0,1-2.38,1.74Z"/><path d="M52.22,10.86l56.85,2S127.95,13,122.38,28,112.45,63.33,112,75.24s-2.19,3.6-8.75,12-1.79,17.82-1.19,26.17c.33,4.6-.91,5.34-2.09,5.34-.55,0-1.1-.16-1.45-.16s-.43.09-.43.39c0,1.59-1.19,10.34-1.19,10.34A121.25,121.25,0,0,0,86.8,152.38c-4.17,13.12-7,11.13-7,11.73s.4,7.16-1.39,10.14S73.88,186,73.88,186c-4-5.17-5-16.3-5.37-17.69s-1.13-10.38-3-10.38a.61.61,0,0,0-.23,0c-2,.8-4.37,7.16-4.37,7.16s-4.37-4.17-1.59-8.15,3.38-9.14-2-22.66-8.55-14.51-8.55-14.51-5.37-1.59-3.18-7.75-3.18-11.93-6-16.7-14.11-29-14.11-29c-2.56-3.16-2.72-3.54-2.65-3.54s.07,0,.07,0A89.68,89.68,0,0,0,12.47,30.34l8-8.15,18.49-8,13.32-3.38m0-5A5,5,0,0,0,51,6L37.67,9.39a5,5,0,0,0-.75.25l-18.49,8a5,5,0,0,0-1.6,1.1l-8,8.15a5,5,0,0,0-.7,6.07,85.62,85.62,0,0,1,9.73,29.52,6.06,6.06,0,0,0,1.39,4c.43.59,1.09,1.44,2,2.58,1.75,3.74,11.41,24.32,14.07,28.87.62,1.07,1.34,2.14,2,3.18C40,105,41.8,108,40.95,110.36a11.14,11.14,0,0,0,.27,9,10.56,10.56,0,0,0,5.27,4.84c.64.66,2.86,3.36,6.25,11.9,5.47,13.77,3.56,16.49,2.54,17.95-3.6,5.15-1.37,11.19,2.23,14.63a5,5,0,0,0,6.11.62l.05.22c0,.22.13.8.21,1.28.66,4.22,2,13,6,18.19a5,5,0,0,0,8.73-1.53c1.08-3.4,3.07-9,4.09-10.67,1.35-2.25,2.05-5.52,2.13-10,2.51-2.24,4.59-6.34,6.69-13a117.47,117.47,0,0,1,9.66-22,5,5,0,0,0,.66-1.89c.21-1.56.58-4.35.87-6.79a6.55,6.55,0,0,0,2.23-1.57c2.26-2.43,2.29-6.06,2.11-8.58A61,61,0,0,0,106,105.7c-1.33-6.8-2-11.18,1.28-15.37,1.79-2.3,2.64-2.54,3.46-2.76,5.57-1.55,6.13-5.82,6.34-12.15.39-11.61,4.79-31.69,10-45.71,2.59-6.95.93-11.63-.93-14.34-4.85-7.07-15.44-7.49-17-7.52l-56.79-2Z"/><path class="cls-3" d="M98.13,119s-1.89-5.77-6.89-3.38-8.62,3.5-10.93,2.2-7.63,2.43-5.85,4.81,23.66,1.77,23.66,1.77S100.52,120.47,98.13,119Z"/><path class="cls-4" d="M12.47,32.84a2.5,2.5,0,0,1-1.33-.38C4.64,28.36,4.79,20.08,4.8,19.73a2.5,2.5,0,0,1,1.4-2.18c.41-.2,10.33-5,38.51-11.32l.14,0a203.58,203.58,0,0,1,33-2.71c30.55,0,50.15,6.9,51,7.19a2.5,2.5,0,0,1,1.5,3.23l-5.57,14.91a2.5,2.5,0,0,1-2.34,1.63,2.47,2.47,0,0,1-.45,0,2.5,2.5,0,0,1-2-1.87c-.28-.2-1.36-.8-4.4-.8-.76,0-1.6,0-2.5.11s-1.66.1-2.57.1C101.08,28,88,24.3,80.94,22.34L79.77,22a48.83,48.83,0,0,0-12.52-1.69,22.54,22.54,0,0,0-8.13,1.2,13.75,13.75,0,0,1-5.21,1,14.23,14.23,0,0,1-7-1.8,2.49,2.49,0,0,1-.51-.41,6.91,6.91,0,0,0-1-.86c-.6,1.61-1.66,3.86-3.8,3.86a2.68,2.68,0,0,1-.52-.05h-.21c-9.52,0-27.07,9.17-27.25,9.27A2.5,2.5,0,0,1,12.47,32.84Z"/><path d="M77.82,6c30.46,0,50.13,7,50.13,7L122.38,28s0-2.71-6.83-2.71c-.8,0-1.7,0-2.71.12-.75.06-1.54.09-2.36.09-9.6,0-23.45-4-30-5.86a51.42,51.42,0,0,0-13.19-1.79,25.08,25.08,0,0,0-9.07,1.39,11.23,11.23,0,0,1-4.27.84,11.87,11.87,0,0,1-5.67-1.43s-1.86-2-3.38-2c-.65,0-1.23.35-1.59,1.36-.88,2.5-1.44,2.82-1.67,2.82a.18.18,0,0,1-.12,0h-.61c-10.26,0-28.41,9.55-28.41,9.55C7.1,27,7.3,19.8,7.3,19.8S17,15,45.26,8.67A200.5,200.5,0,0,1,77.82,6m0-5A206.1,206.1,0,0,0,44.45,3.74l-.29.06C15.69,10.21,5.52,15.11,5.1,15.31a5,5,0,0,0-2.8,4.35c-.1,3.72,1.36,11,7.5,14.9a5,5,0,0,0,5,.19c4.75-2.5,18.69-9,26.08-9a5.16,5.16,0,0,0,.73.05,5.57,5.57,0,0,0,4.68-2.6A17,17,0,0,0,53.92,25a16.23,16.23,0,0,0,6.15-1.21,20.48,20.48,0,0,1,7.18-1,46.23,46.23,0,0,1,11.85,1.6l1.16.32c7.15,2,20.47,5.71,30.22,5.71,1,0,1.9,0,2.77-.11s1.6-.1,2.29-.1a11.66,11.66,0,0,1,2.51.22,5,5,0,0,0,9-.76l5.57-14.91a5,5,0,0,0-3-6.46C128.8,8,108.8,1,77.82,1Z"/><path class="cls-5" d="M98.33,51c-1.91,0-3.75-.14-5.37-.27-1.25-.1-2.32-.18-3.17-.18h-.55c-2.47,0-5-1.49-7.24-4.19a24.59,24.59,0,0,1-4.6-19.48c1.52-7.44,3.28-8.27,7.56-8.62a20.4,20.4,0,0,0,6.67-1.46,17.75,17.75,0,0,1,6.66-1.37c9,0,14.7,7.64,15.27,20.43.22,4.9-.9,8.67-3.32,11.21-3.36,3.51-8.4,3.92-11.89,3.92Z"/><path d="M98.27,16.91c6.93,0,13.16,5.29,13.78,19,.52,11.66-6.89,13.56-13.72,13.56-3.31,0-6.49-.45-8.55-.45h-.55C83.31,49,76.69,37.8,78.85,27.16s4.37-5.37,13.32-9a16.34,16.34,0,0,1,6.1-1.26m0-3A19.24,19.24,0,0,0,91,15.39a18.83,18.83,0,0,1-6.22,1.36c-5.18.41-7.31,2-8.91,9.81a25.8,25.8,0,0,0,4.91,20.73c2.5,3.05,5.48,4.74,8.41,4.74h.55c.79,0,1.84.08,3.06.18,1.65.13,3.52.27,5.49.27,5.91,0,10.16-1.43,13-4.38s4-7,3.74-12.31C114.13,15.48,102,13.91,98.27,13.91Z"/><path class="cls-5" d="M52.14,78.23a6.39,6.39,0,0,1-2.25-.4,14.22,14.22,0,0,0-4.8-.84c-5-.22-8.13-1.07-15.88-16-3.53-6.79-4.1-12.22-1.72-16.15,3.4-5.6,11.4-5.92,13.07-5.92a43.09,43.09,0,0,1,7-.62c14.56,0,18.17,9.36,20.1,14.39a22.88,22.88,0,0,0,.9,2.14c1.49,2.85-.78,8.48-3.39,12.8-1.5,2.48-6.89,10.58-13,10.58Z"/><path d="M47.54,39.82c16,0,17.64,11.85,19.67,15.73,2.12,4.06-7.34,21.18-15.07,21.18a4.88,4.88,0,0,1-1.72-.31c-8-3-9.34,4.17-19.88-16.1C20.41,40.81,39.16,40.45,40.59,40.45h.09a41.49,41.49,0,0,1,6.86-.62m0-3a44.44,44.44,0,0,0-7.11.62c-2.06,0-10.49.5-14.22,6.64-2.68,4.41-2.11,10.33,1.67,17.62C35.59,76.55,39,78.22,45,78.48a12.78,12.78,0,0,1,4.34.75,7.88,7.88,0,0,0,2.78.5c6.91,0,12.69-8.65,14.29-11.31,1.37-2.26,5.67-10,3.44-14.26-.23-.45-.52-1.19-.82-2-1.92-5-5.91-15.36-21.5-15.36Z"/><path class="cls-5" d="M65.46,119.31c-2.44,0-5.82-1.16-8-6.67a31,31,0,0,1-1.94-11c0-8.61,1.49-11.26,15.16-15.54a19.83,19.83,0,0,1,5.84-1c10.22,0,10.22,11.61,10.22,16.56,0,6.68-2.49,8.11-8,11.23-1.82,1-4.09,2.34-6.83,4.13A12,12,0,0,1,65.46,119.31Z"/><path d="M76.48,86.6c8.16,0,8.72,8.49,8.72,15.06,0,7.79-3.18,7-14.11,14.11a10.51,10.51,0,0,1-5.63,2c-6.44,0-8.48-9.89-8.48-16.14,0-7.79.8-9.94,14.11-14.11a18.23,18.23,0,0,1,5.39-.95m0-3h0a21.31,21.31,0,0,0-6.29,1.09C62.65,87.05,59,88.83,56.83,91.22,54.19,94.1,54,97.51,54,101.67c0,9.53,3.55,19.14,11.48,19.14a13.48,13.48,0,0,0,7.27-2.52c2.7-1.77,4.95-3.05,6.75-4.09,5.62-3.21,8.72-5,8.72-12.54,0-4.94,0-18.06-11.72-18.06Z"/><path class="cls-5" d="M84.3,158.5c-3.47,0-9.76-3.87-13.6-9.63-2.48-3.71-4.83-9.57-2-16.38,3.92-9.4,13.72-11.37,21.25-11.37a41.54,41.54,0,0,1,7.86.72,2,2,0,0,1,1.28.91c1.23,1.89.63,7.9.48,8.5-.25,1-3.94,9-5.56,10.63A37,37,0,0,0,91.86,147c-1.57,4.12-3.35,8.79-5.22,10.68a3.15,3.15,0,0,1-2.34.86Z"/><path d="M90,122.62a40.32,40.32,0,0,1,7.55.69c1.23.21.81,6.78.61,7.58s-3.78,8.55-5.17,9.94-4.57,12.92-7.38,15.76a1.74,1.74,0,0,1-1.27.42c-5,0-19.57-11.05-14.2-23.93,3.65-8.75,13.08-10.45,19.86-10.45m0-3c-11.29,0-19.33,4.37-22.63,12.3-2.41,5.79-1.66,12.11,2.13,17.79S79.9,160,84.3,160a4.62,4.62,0,0,0,3.41-1.31c1.94-2,3.53-5.88,5.56-11.2a48.72,48.72,0,0,1,1.94-4.68c2-2.18,5.58-10.19,5.83-11.2,0-.06,1-7-.68-9.68a3.49,3.49,0,0,0-2.26-1.56,43.55,43.55,0,0,0-8.13-.74Z"/><path class="cls-6" d="M14.37,29.38S12.47,27,15,24.18,21,23,24.39,21s7.9-.75,6.93,1.51"/><path class="cls-6" d="M51.42,6.88s.4,4,2.19,4S58.38,5.49,51.42,6.88Z"/><ellipse class="cls-6" cx="74.09" cy="12.75" rx="4.76" ry="1.29"/><path class="cls-6" d="M117.81,14s-3.78,1.17-3,2.87-1,4.68,3.58,3.09,4.77-3.18,3-5A3.3,3.3,0,0,0,117.81,14Z"/><path class="cls-7" d="M64.54,26.36a1.39,1.39,0,0,0,0,2.78A1.39,1.39,0,0,0,64.54,26.36Z"/><path class="cls-7" d="M103.5,57.37c-6.39,0-6.41,9.94,0,9.94S109.91,57.37,103.5,57.37Z"/><path class="cls-7" d="M72.1,73.07c-2.56,0-2.56,4,0,4S74.66,73.07,72.1,73.07Z"/><path class="cls-7" d="M37.31,79a1.79,1.79,0,0,0,0,3.58A1.79,1.79,0,0,0,37.31,79Z"/><path class="cls-7" d="M23.6,32.72c-2.56,0-2.56,4,0,4S26.16,32.72,23.6,32.72Z"/><path class="cls-7" d="M49.64,113a1.59,1.59,0,0,0,0,3.18A1.59,1.59,0,0,0,49.64,113Z"/><path class="cls-7" d="M99.13,112a1.79,1.79,0,0,0,0,3.58A1.79,1.79,0,0,0,99.13,112Z"/><path class="cls-7" d="M61.16,157.55a1.19,1.19,0,0,0,0,2.39A1.19,1.19,0,0,0,61.16,157.55Z"/><path class="cls-7" d="M74.08,174.84a1.39,1.39,0,0,0,0,2.78A1.39,1.39,0,0,0,74.08,174.84Z"/><path class="cls-7" d="M63,123.56c-3.84,0-3.84,6,0,6S66.8,123.56,63,123.56Z"/><path class="cls-7" d="M96.94,78.64c-3.84,0-3.84,6,0,6S100.78,78.64,96.94,78.64Z"/><path class="cls-7" d="M79.25,53c-2.56,0-2.56,4,0,4S81.81,53,79.25,53Z"/><path class="cls-8" d="M86.61,24.18c-2.56,0-2.56,4,0,4S89.17,24.18,86.61,24.18Z"/><path class="cls-8" d="M92.17,42.86a1.39,1.39,0,0,0,0,2.78A1.39,1.39,0,0,0,92.17,42.86Z"/><path class="cls-8" d="M101.31,24.57c-3.07,0-3.07,4.77,0,4.77S104.39,24.57,101.31,24.57Z"/><path class="cls-8" d="M96.15,35.9a.8.8,0,0,0,0,1.59A.8.8,0,0,0,96.15,35.9Z"/><path class="cls-8" d="M36.7,54.76c-3.07,0-3.07,4.77,0,4.77S39.78,54.76,36.7,54.76Z"/><path class="cls-8" d="M47.24,43c-3.07,0-3.07,4.77,0,4.77S50.31,43,47.24,43Z"/><path class="cls-8" d="M49.23,65.09c-3.07,0-3.07,4.77,0,4.77S52.3,65.09,49.23,65.09Z"/><path class="cls-8" d="M56.38,55.95c-3.07,0-3.07,4.77,0,4.77S59.46,55.95,56.38,55.95Z"/><path class="cls-8" d="M74.47,92.32c-3.07,0-3.07,4.77,0,4.77S77.54,92.32,74.47,92.32Z"/><path class="cls-8" d="M64.13,108c-3.07,0-3.07,4.77,0,4.77S67.21,108,64.13,108Z"/><path class="cls-8" d="M82.82,133.87c-3.07,0-3.07,4.77,0,4.77S85.89,133.87,82.82,133.87Z"/><path class="cls-8" d="M82.62,146.79c-3.07,0-3.07,4.77,0,4.77S85.69,146.79,82.62,146.79Z"/><path class="cls-8" d="M93.55,125.32c-3.07,0-3.07,4.77,0,4.77S96.63,125.32,93.55,125.32Z"/><g class="cls-9"><path class="cls-10" d="M62.24,6s-11.42,11.54,1,12c0,0-16,9.45-9.58,19.45,0,0,2.75,27,23.57,32.51s-18.44,27.91-9.56,46.2,1.71,60,1.71,60L48.1,172,3,47.5,0,0Z"/></g><g class="cls-11"><path class="cls-10" d="M62.24,6s-11.42,11.54,1,12c0,0-16,9.45-9.58,19.45,0,0,2.75,27,23.57,32.51s-18.44,27.91-9.56,46.2,1.71,60,1.71,60L48.1,172,3,47.5,0,0Z"/></g><path class="cls-3" d="M113.58,67c-4.67,7.83-10.08,2.17-12.27,4.75s.19,6.85,2.94,5.3,9,.11,8.39,2,.36-8.29.36-8.29S113.42,68.33,113.58,67Z"/><path class="cls-3" d="M74.47,61.75s8.59,0,12.18-2.75,8,2.18,4.17,3.34-8.62,3.6-12,2.75S72.19,66,74.47,61.75Z"/></g></g></svg>