<svg xmlns="http://www.w3.org/2000/svg" viewBox="0 0 62.61 35.01"><defs><style>.cls-1{fill:#451517;}.cls-2{fill:#82161a;}.cls-3{fill:#cf2a33;}.cls-4{fill:#fff;}</style></defs><title>Logo_CY</title><g id="Layer_2" data-name="Layer 2"><g id="Layer_1-2" data-name="Layer 1"><path class="cls-1" d="M13.44,3.13c-.19.2-.43.65-.7.73s-.61-.26-.88-.39a3.35,3.35,0,0,0-2.23-.29C8,3.59,7.5,4.94,7.56,6.47A2.68,2.68,0,0,1,9.63,3.69,3.35,3.35,0,0,1,11.86,4c.27.13.55.49.88.39s.52-.53.7-.73.63-.47.75-.77a.36.36,0,0,0-.06-.41A5.35,5.35,0,0,1,13.44,3.13Z"/><path class="cls-1" d="M14,10.37A6.45,6.45,0,0,1,9.64,11.5,5.08,5.08,0,0,1,5.53,9.43a5.84,5.84,0,0,1-1-3,5.88,5.88,0,0,0,1,3.54A5.08,5.08,0,0,0,9.64,12,6.45,6.45,0,0,0,14,10.87c.22-.18.64-.41.36-.7l0-.06A3.85,3.85,0,0,1,14,10.37Z"/><path class="cls-1" d="M22.66,1.61c0,.18,0,.39,0,.61,0-.17,0-.34,0-.51S22.66,1.65,22.66,1.61Z"/><path class="cls-1" d="M25.63,2.52a5.37,5.37,0,0,0,0-.9,5.18,5.18,0,0,0,0,.72C25.63,2.4,25.63,2.46,25.63,2.52Z"/><path class="cls-1" d="M18.72,4.34c0-.26.05-.52.05-.64s0-.3,0-.44A7,7,0,0,0,18.72,4.34Z"/><path class="cls-1" d="M18.77,2.85c0-.14,0-.29,0-.43a4.51,4.51,0,0,0,0-.94c0,.17,0,.33,0,.43C18.76,2.22,18.76,2.54,18.77,2.85Z"/><path class="cls-1" d="M17.51,11.31c-.43,0-.85.08-1.28,0a.36.36,0,0,1-.37-.3c0,.39-.09.76.37.81s.85-.06,1.28,0,1,.2,1.24-.05a.93.93,0,0,0,.13-.76.47.47,0,0,1-.13.26C18.49,11.5,17.83,11.32,17.51,11.31Z"/><path class="cls-1" d="M22.66,3.14c0,.17,0,.34,0,.51s0,.19,0,.3C22.68,3.67,22.66,3.36,22.66,3.14Z"/><path class="cls-1" d="M15.83,5c0,.07,0,.14,0,.21,0,1,0,1.9,0,2.85V7.57C15.87,6.72,15.83,5.87,15.83,5Z"/><path class="cls-1" d="M24.82,11.24c-.5,0-1,0-1.48,0s-.63-.06-.66-.58,0-.93,0-1.4c0,.12,0,.24,0,.36,0,.52,0,1,0,1.56s.12.61.66.58,1,0,1.48,0,.71,0,.74-.55c.1-1.76.08-3.68.15-5.54,0-.12,0-.23,0-.35-.06,1.8,0,3.66-.14,5.37C25.53,11.26,25.34,11.27,24.82,11.24Z"/><path class="cls-1" d="M22.64,7.69c0-.57-.46-.44-.93-.41s-1,0-1.52,0c-.33,0-.92-.18-1.2,0s-.26.79-.24,1.45c0-.46.08-.85.24-.94s.88,0,1.2,0c.51,0,1,0,1.52,0s.9-.16.93.41c0,.15,0,.31,0,.46C22.65,8.33,22.66,8,22.64,7.69Z"/><path class="cls-1" d="M15.87,1.82c0-.1,0-.22,0-.33a2.51,2.51,0,0,0,0,.84c0,.16,0,.32,0,.48C15.89,2.48,15.89,2.15,15.87,1.82Z"/><path class="cls-1" d="M35.88,1.93a2.89,2.89,0,0,0,0-.63c0,.06,0,.1,0,.12Z"/><path class="cls-1" d="M35.91,11.25a3.86,3.86,0,0,1-1.06,0l-.75,0H28.28c-.46,0-.56-.13-.57-.41,0,0,0,.05,0,.08,0,.6-.07.85.58.84h5.81l.75,0a3.86,3.86,0,0,0,1.06,0c.35-.13.27-.7.28-1.06,0,0,0-.05,0-.08C36.18,10.89,36.13,11.16,35.91,11.25Z"/><path class="cls-1" d="M27.67,6.31c0,.12,0,.23,0,.35,0,.83.09,1.65.1,2.48v0C27.79,8.18,27.68,7.26,27.67,6.31Z"/><path class="cls-1" d="M27.68,3.18c0-.46,0-.93,0-1.39,0,0,0,0,0,0,0,.18,0,.38,0,.55,0,.46,0,.93,0,1.39,0,.18,0,.36,0,.53C27.7,3.87,27.7,3.53,27.68,3.18Z"/><path class="cls-1" d="M34.72,7a20.76,20.76,0,0,0-3,0c-.36,0-1,0-1.1.28a3.17,3.17,0,0,0-.08,1,2,2,0,0,1,.08-.52c.14-.31.74-.26,1.1-.28a20.76,20.76,0,0,1,3,0c.51,0,.82.1.82-.48,0-.34,0-.68,0-1,0,.17,0,.34,0,.51C35.54,7.11,35.23,7.05,34.72,7Z"/><path class="cls-1" d="M35.22,3.22h-3a4.71,4.71,0,0,0-1.35,0c-.28.1-.24.59-.23.94,0-.2.08-.38.23-.43a4.71,4.71,0,0,1,1.35,0h3c.51,0,.66,0,.66-.53V2.69C35.88,3.24,35.73,3.22,35.22,3.22Z"/><path class="cls-1" d="M42.14,11.5a4.94,4.94,0,0,1-3.95-2.23,6.07,6.07,0,0,1-.86-2.92,6.1,6.1,0,0,0,.86,3.42A4.94,4.94,0,0,0,42.14,12a6.84,6.84,0,0,0,4.44-1c.2-.15.7-.44.68-.67a2.1,2.1,0,0,0-.16-.23,4.62,4.62,0,0,1-.53.39A6.84,6.84,0,0,1,42.14,11.5Z"/><path class="cls-1" d="M46.16,3.28c-.2.22-.41.6-.73.6s-.68-.38-1-.5a3.22,3.22,0,0,0-2.26-.13,2.48,2.48,0,0,0-1.71,1.47,4.29,4.29,0,0,0-.18,1.56,3.68,3.68,0,0,1,.18-1.05,2.48,2.48,0,0,1,1.71-1.47,3.22,3.22,0,0,1,2.26.13c.29.13.66.51,1,.5s.54-.39.73-.6.51-.46.73-.72.2-.41,0-.57l0,.06C46.67,2.81,46.39,3,46.16,3.28Z"/><path class="cls-1" d="M54.17,5.14c-.31.3-.67.49-.44.89l0,0a4.18,4.18,0,0,1,.42-.41c.61-.59,1.11-1.33,1.66-2s1.29-1.42,1.84-2.18c.08-.11.21-.15.14-.27s-.15-.05-.29,0c-.52.69-1.14,1.33-1.7,2S54.78,4.55,54.17,5.14Z"/><path class="cls-1" d="M51.58,3.85c0-.06,0-.11,0-.14s0-.19,0-.29A2.55,2.55,0,0,0,51.58,3.85Z"/><path class="cls-1" d="M51.55,2.24a2.69,2.69,0,0,0,0-.82c0,.18-.05.35-.05.45S51.55,2.12,51.55,2.24Z"/><path class="cls-1" d="M58,11.31a2.68,2.68,0,0,1-.54,0c-.48,0-1,0-1.43,0a9.18,9.18,0,0,1-1.3,0c-.69-.11-1.15-1.23-1.59-1.73s-.66-.7-1-1.08-.46-.79-.54-.25a6.26,6.26,0,0,0-.05,1.1,5,5,0,0,1,.05-.59c.08-.53.34,0,.54.25s.65.72,1,1.08.9,1.62,1.59,1.73a9.18,9.18,0,0,0,1.3,0c.48,0,1,0,1.43,0,.16,0,1,.1.71-.32Z"/><path class="cls-1" d="M48.67,3.32q0,.61,0,1.22c0-.06,0-.13,0-.19C48.67,4,48.67,3.67,48.67,3.32Z"/><path class="cls-1" d="M22.65,8.65c0,.15,0,.31,0,.46s0,.1,0,.15C22.65,9.06,22.65,8.86,22.65,8.65Z"/><path class="cls-1" d="M15.87,10.38a3.94,3.94,0,0,0,0,.66c0-.05,0-.1,0-.16Z"/><path class="cls-1" d="M18.82,10.48c0,.13,0,.32.06.52a4.46,4.46,0,0,0-.06-1c0-.21-.06-.73-.07-1.26C18.73,9.38,18.81,10.2,18.82,10.48Z"/><path class="cls-1" d="M18.81,5.13c.2.23,1,0,1.21,0a10.26,10.26,0,0,1,1.34,0c.33,0,1,.22,1.22-.16a2.49,2.49,0,0,0,.09-1,1.34,1.34,0,0,1-.09.49c-.18.38-.89.18-1.22.16a10.26,10.26,0,0,0-1.34,0c-.25,0-1,.26-1.21,0a.52.52,0,0,1-.1-.28A1.3,1.3,0,0,0,18.81,5.13Z"/><path class="cls-1" d="M18.77,3.26s0,0,0-.06,0-.23,0-.34C18.77,3,18.76,3.12,18.77,3.26Z"/><path class="cls-1" d="M15.88,2.81c0,.64-.06,1.28-.06,1.91,0,.1,0,.2,0,.3C15.84,4.29,15.89,3.55,15.88,2.81Z"/><path class="cls-1" d="M25.65,3.81c0-.43,0-.86,0-1.29a2.55,2.55,0,0,0,0,.32c0,.49,0,1,0,1.47,0,.34,0,.67.05,1,0-.05,0-.11,0-.16C25.73,4.71,25.64,4.26,25.65,3.81Z"/><path class="cls-1" d="M36.14,8.86c-.31-.5-2.14-.12-2.66-.15s-1,0-1.56,0c-.29,0-1.09.14-1.27-.06a.67.67,0,0,1-.08-.33,1.7,1.7,0,0,0,.08.84c.18.2,1,.07,1.27.06.53,0,1,0,1.56,0s2.35-.35,2.66.15c0,.42.06.83.05,1.24,0-.15,0-.3,0-.43C36.21,9.75,36.13,9.31,36.14,8.86Z"/><path class="cls-1" d="M27.76,9.15c0,.45-.06.89-.06,1.33,0,.17,0,.31,0,.43,0-.43,0-.85.06-1.28C27.77,9.47,27.76,9.31,27.76,9.15Z"/><path class="cls-1" d="M27.69,4.22c0,.64,0,1.29,0,1.94,0,.05,0,.11,0,.16C27.68,5.62,27.7,4.92,27.69,4.22Z"/><path class="cls-1" d="M30.6,4.76c0,.59.43.45.93.45s1.08,0,1.61,0,1.05-.07,1.58-.09.78-.13.82.38c0,.17,0,.34,0,.51a9.88,9.88,0,0,0,0-1c0-.51-.38-.4-.82-.38s-1.05.07-1.58.09-1.08,0-1.61,0-.93.15-.93-.45c0,0,0-.09,0-.14C30.58,4.33,30.6,4.58,30.6,4.76Z"/><path class="cls-1" d="M48.67,4.54c0,1.32-.06,2.64,0,4,0-1.21,0-2.43,0-3.64C48.67,4.75,48.67,4.65,48.67,4.54Z"/><path class="cls-1" d="M51.58,3.42c0-.1,0-.19,0-.22,0-.32,0-.64,0-1a1.28,1.28,0,0,0,0,.13C51.54,2.72,51.56,3.07,51.58,3.42Z"/><path class="cls-2" d="M14.38,9.23c-.26-.38-1-1.51-1.51-1.58-.31,0-.64.34-.9.49a4.57,4.57,0,0,1-1.08.44A2.69,2.69,0,0,1,7.58,6.36c-.15-1.66.28-3.17,2.05-3.62A3.35,3.35,0,0,1,11.86,3c.27.13.55.49.88.39s.52-.53.7-.73.63-.47.75-.77-.15-.5-.42-.67a6,6,0,0,0-2-1.1,6.62,6.62,0,0,0-4.55.6A5.93,5.93,0,0,0,5.53,9a5.08,5.08,0,0,0,4.12,2.06A6.45,6.45,0,0,0,14,9.93C14.25,9.75,14.67,9.52,14.38,9.23Z"/><path class="cls-2" d="M25.65,3.37c0-.49,0-1,0-1.47a9.53,9.53,0,0,0,0-1.36c-.11-.49-.71-.33-1.12-.3s-.91,0-1.37,0c-.64,0-.5.51-.5,1s0,1,0,1.43A3.83,3.83,0,0,1,22.58,4c-.18.38-.89.18-1.22.16a10.26,10.26,0,0,0-1.34,0c-.25,0-1,.26-1.21,0s0-1.15,0-1.43,0-.86,0-1.28S19,.41,18.64.22s-1,0-1.28,0a5.65,5.65,0,0,0-1.24,0c-.52.14-.29.71-.26,1.11.07,1,0,1.94,0,2.9s0,1.9,0,2.85V9.94c0,.44-.16.91.36,1s.85-.06,1.28,0,1,.2,1.24-.05.08-.95.07-1.28S18.59,7,19,6.83s.88,0,1.2,0c.51,0,1,0,1.52,0s.9-.16.93.41,0,1,0,1.43,0,1,0,1.56.12.61.66.58,1,0,1.48,0,.71,0,.74-.55c.1-1.76.08-3.68.15-5.54C25.73,4.27,25.64,3.83,25.65,3.37Z"/><path class="cls-2" d="M36.14,8.43c-.31-.5-2.14-.12-2.66-.15s-1,0-1.56,0c-.29,0-1.09.14-1.27-.06a2.59,2.59,0,0,1,0-1.36c.14-.31.74-.26,1.1-.28a20.75,20.75,0,0,1,3,0c.51,0,.82.1.82-.48s0-1,0-1.54-.38-.4-.82-.38-1.05.07-1.58.09-1.08,0-1.61,0-.93.15-.93-.45c0-.34-.09-1,.22-1.08a4.71,4.71,0,0,1,1.35,0h3c.51,0,.66,0,.66-.53V1a2.3,2.3,0,0,0,0-.65c-.1-.12-.48-.05-.62,0-.45,0-.89,0-1.34,0-1,0-2,.09-2.94.05-.5,0-1-.05-1.5-.05A9,9,0,0,0,28,.27c-.43.08-.31.69-.33,1.08s0,.93,0,1.39c0,1,0,2,0,3s.13,2,.1,3c0,.45-.06.9-.06,1.35s-.07.85.58.84h5.81l.75,0a3.86,3.86,0,0,0,1.06,0c.35-.13.27-.7.28-1.06S36.13,8.87,36.14,8.43Z"/><path class="cls-2" d="M47.26,9.43a6.89,6.89,0,0,0-.71-.86,3.91,3.91,0,0,0-.72-.82c-.35-.23-.51,0-.81.21a4.82,4.82,0,0,1-1.11.54,2.68,2.68,0,0,1-3.54-1.87,4.84,4.84,0,0,1,.1-2.34,2.48,2.48,0,0,1,1.71-1.47,3.22,3.22,0,0,1,2.26.13c.29.13.66.51,1,.5s.54-.39.73-.6.51-.46.73-.72.15-.51-.19-.76a6,6,0,0,0-2-1.12,6.34,6.34,0,0,0-4.46.41,5.88,5.88,0,0,0-2,8.17,4.94,4.94,0,0,0,3.95,2.23,6.84,6.84,0,0,0,4.44-1C46.78,10,47.28,9.66,47.26,9.43Z"/><path class="cls-2" d="M58.2,10.55C57,9.26,55.86,7.89,54.61,6.64a5.33,5.33,0,0,1-.88-1.05c-.23-.4.13-.59.44-.89.61-.59,1.11-1.33,1.66-2S57.12,1.31,57.67.55c.08-.11.21-.15.14-.27s-.6,0-.68,0c-.4,0-.79,0-1.19,0a4.88,4.88,0,0,0-1.43,0c-.39.1-.65.52-.9.86-.55.72-1.06,1.48-1.64,2.17-.07.08-.2.31-.34.25s0-.64,0-.74c0-.45-.05-.89,0-1.34,0-.23.19-.92,0-1.1s-1,0-1.26,0a12.23,12.23,0,0,0-1.3,0c-.27.05-.18,0-.25.25a3.63,3.63,0,0,0,0,.74c0,.87,0,1.75,0,2.63,0,1.81-.11,3.64,0,5.45,0,.37,0,.75,0,1.12,0,.55.46.32.91.31s.87.06,1.31.06.74.13.74-.4a17.65,17.65,0,0,1,0-2.62c.08-.53.34,0,.54.25s.65.72,1,1.08.9,1.62,1.59,1.73a9.19,9.19,0,0,0,1.3,0c.48,0,1,0,1.43,0C57.65,10.88,58.54,11,58.2,10.55Z"/><path class="cls-3" d="M59.37,6.3v.84l.05,0h1.9l.24,0h.07l.24,0h.07l.24,0h.36V4.46h-.37l-.24-.05h-.07l-.24,0H59.37v1.8h0Z"/><path class="cls-3" d="M3.24,6.08V4.5H1l-.24,0H.66l-.24.05H0V7.12H.41l.24,0H.72L1,7.11h.07l.24,0H3.19l.05,0v-1h0Z"/><path class="cls-3" d="M62.08,33.86,31.3,31.68.53,33.86A.66.66,0,0,1,0,33.11V12.94a.66.66,0,0,1,.52-.75L31.3,14.37l30.78-2.19a.66.66,0,0,1,.52.75V33.12A.66.66,0,0,1,62.08,33.86Z"/><path class="cls-2" d="M62.08,34.36,31.3,32.17.53,34.36A.66.66,0,0,1,0,33.61v.65A.66.66,0,0,0,.53,35L31.3,32.83,62.08,35a.66.66,0,0,0,.52-.74v-.65A.66.66,0,0,1,62.08,34.36Z"/><path class="cls-4" d="M10.19,18.94c-.67,1.12-1.31,2.24-1.94,3.38-.25.44-.51.87-.74,1.32a3.06,3.06,0,0,0-.13,1.57c0,.51,0,1,0,1.53,0,.15.12.6,0,.73s-.58.13-.75.15l-.82.07c-.32,0-.29.09-.37-.16a7.71,7.71,0,0,1,0-1.78c0-.51.05-1.12,0-1.62a4.31,4.31,0,0,0-.57-1.31,39,39,0,0,1-1.73-4c-.15-.37-.58-1,0-1a5.31,5.31,0,0,1,1.75.31c.38.16.46.73.63,1.13s.42,1,.64,1.48c0,.09.24.69.36.69s.29-.58.34-.69c.25-.52.54-1,.77-1.54.08-.18.22-.63.41-.7s.58.08.81.09S10.37,18.65,10.19,18.94Z"/><path class="cls-4" d="M17.88,22.94a3.72,3.72,0,0,1-.62,2.4,4.2,4.2,0,0,1-2,1.4,4,4,0,0,1-4.58-1,3.55,3.55,0,0,1-.57-2.43,6,6,0,0,1,.35-2.3,3,3,0,0,1,1.45-1.58,4.57,4.57,0,0,1,2.45-.22,3.78,3.78,0,0,1,2.49,1.17,5,5,0,0,1,.73,1.16A5.85,5.85,0,0,1,17.88,22.94Zm-2.39,1.31c1.11-1.59-.51-4.1-2.44-3.27-.91.39-1,1.23-1,2.1A1.84,1.84,0,0,0,13,24.92,1.89,1.89,0,0,0,15.49,24.25Z"/><path class="cls-4" d="M25.46,23.08a2.85,2.85,0,0,1-1.16,2.73,5.49,5.49,0,0,1-3.18.53,2.3,2.3,0,0,1-2.24-1.81,7.4,7.4,0,0,1,0-1.71V21.21c0-.34-.15-1.5.14-1.65s.57,0,.76.05.66-.09.85,0c.35.16.18,1.16.18,1.54v1.61A3,3,0,0,0,21,24.52a1.37,1.37,0,0,0,1.55.28c1.14-.41.81-1.83.81-2.77a13.63,13.63,0,0,1,0-1.8c.05-.37.15-.37.52-.35s.67,0,1,0,.47-.07.52.3a8,8,0,0,1,0,1.07A7.66,7.66,0,0,0,25.46,23.08Z"/><path class="cls-4" d="M33.34,26H32c-.56,0-.77.08-1.13-.35s-.59-.61-.84-1-.38-.57-.79-.59-.45.3-.43.77c0,.25.19,1.08,0,1.23s-1,0-1.27,0-.46.07-.59,0-.12-.15-.12-.43c0-1.71,0-3.42,0-5.13,0-.48-.09-.64.43-.64s1,0,1.52.05a10.33,10.33,0,0,1,2.57.13A2,2,0,0,1,33,21.95a1.54,1.54,0,0,1-.4,1.23,1.44,1.44,0,0,1-1.06.57C31.75,24.06,33.47,25.88,33.34,26Zm-3-3.25a.68.68,0,0,0,.52-1.16c-.37-.41-1.32-.35-1.82-.28-.31,0-.29,0-.29.38s-.1.75,0,.93S30,22.77,30.35,22.78Z"/><path class="cls-4" d="M40,24.24a2.07,2.07,0,0,1-2.33,2c-.59,0-1.18,0-1.77,0a3.48,3.48,0,0,1-1.69-.67c-.18-.12-.47-.27-.42-.46s.43-.35.54-.48.27-.46.56-.45.61.37.84.47a3.54,3.54,0,0,0,1.73.12c.68-.14.62-.78,0-.95-1-.27-2.48-.1-3.24-1a2,2,0,0,1-.2-1.54,1.79,1.79,0,0,1,1.11-1.12,5.58,5.58,0,0,1,3.5-.14c.17.05.65.23.73.4s-.14.43-.28.61-.37.56-.61.58-.48-.18-.7-.21c-.42-.07-1.51-.23-1.82.11-.65.71.94.61,1.19.63a4.84,4.84,0,0,1,1.87.66A1.94,1.94,0,0,1,40,24.24Z"/><path class="cls-4" d="M46.75,25.7c0,.19.06.71-.07.85s-.75,0-1,0l-2-.1c-.73,0-1.44-.11-2.17-.11-.37,0-.43.06-.49-.27s0-.7,0-1c-.1-1.34,0-2.7,0-4v-1c0-.33,0-.33.26-.37.69-.11,1.44,0,2.13,0l2.1-.15c.2,0,.73-.17.9-.06s.09.49.09.71.12.78,0,1-.46.08-.64.08c-.71,0-1.41,0-2.11,0-.18,0-.61-.08-.72.08a2.57,2.57,0,0,0,0,.81c.15.21,1.5.07,1.76.06s.77-.07,1.16-.08.37,0,.37.39,0,.7,0,1-.07.36-.41.34c-.68,0-1.35,0-2,0-.15,0-.76-.14-.87,0a2.74,2.74,0,0,0,0,.87c.15.32,1.16.17,1.54.19s.77.05,1.16.05c.21,0,.72-.08.89.05S46.74,25.49,46.75,25.7Z"/><path class="cls-4" d="M53.37,26.76c0,.23.06.41-.13.51s-.52,0-.67-.06A11.07,11.07,0,0,0,51,27c-.6,0-1.16-.09-1.75-.14-.29,0-1.08.11-1.26-.13s0-.53,0-.7,0-.51,0-.77c0-.53,0-1.06,0-1.6,0-1.14,0-2.29,0-3.43,0-.48-.18-1,.38-1a4,4,0,0,0,1.56-.13c.16.23.05.76.05,1s0,.74,0,1.12c0,.72,0,1.44,0,2.16,0,.44,0,.88,0,1.32s0,.37.45.39c.7,0,1.42.05,2.12.06.32,0,.76-.11.87.22A10.69,10.69,0,0,1,53.37,26.76Z"/><path class="cls-4" d="M59.83,19.53c0,.18.09.63-.06.77s-.59,0-.78,0c-.63,0-1.25.16-1.87.18-.2,0-.54-.08-.67.09s0,.77,0,.93-.07.59,0,.7.69,0,.89,0c.6,0,1.2,0,1.81,0,.32,0,.41,0,.47.3a5.6,5.6,0,0,1,0,.87c0,.47.25,1.38-.4,1.33l-1.66-.11a2.84,2.84,0,0,0-.92,0c-.32.11-.21.35-.21.7,0,.64,0,1.27,0,1.91,0,.25.06.35-.11.43s-.67,0-.89-.06-.57.06-.75-.08-.14-.49-.14-.75c0-2.4,0-4.79,0-7.19,0-.17-.1-.78,0-.92s.59,0,.8-.06a20,20,0,0,0,2.08-.26,11.64,11.64,0,0,1,1.95-.2c.46,0,.48,0,.48.48A7,7,0,0,1,59.83,19.53Z"/></g></g></svg>