<svg xmlns="http://www.w3.org/2000/svg" viewBox="0 0 231.74 52.06"><defs><style>.cls-1{fill:#cf2a33;}</style></defs><title>Text_ThinkYouveGotIt_728x90</title><g id="Layer_2" data-name="Layer 2"><g id="Layer_1-2" data-name="Layer 1"><path class="cls-1" d="M6.54,5.73H0V.44H19.12V5.73H12.58v16.5h-6Z"/><path class="cls-1" d="M21.78.44h6V8.6h7.75V.44h6v21.8h-6V14H27.82v8.28h-6Z"/><path class="cls-1" d="M45.62.44h6.07v21.8H45.62Z"/><path class="cls-1" d="M55.68.44h5.64l9,11.52V.44h6v21.8H71l-9.31-12v12h-6Z"/><path class="cls-1" d="M80.14.44h6V9.28L93.68.44h7.16L92.6,9.81l8.53,12.43H93.87l-5.48-8.1L86.18,16.6v5.64h-6Z"/><path class="cls-1" d="M117.81,14.08,109.52.44h6.88l4.48,7.94L125.4.44h6.76L123.88,14v8.25h-6.07Z"/><path class="cls-1" d="M131.26,11.4v-.06A11.42,11.42,0,0,1,143,0c6.73,0,11.71,5,11.71,11.27v.06A11.42,11.42,0,0,1,143,22.67C136.25,22.67,131.26,17.66,131.26,11.4Zm17.31,0v-.06A5.67,5.67,0,0,0,143,5.45a5.56,5.56,0,0,0-5.51,5.82v.06A5.66,5.66,0,0,0,143,17.22,5.56,5.56,0,0,0,148.58,11.4Z"/><path class="cls-1" d="M157.62,12.67V.44h6.13V12.55c0,3.15,1.59,4.64,4,4.64s4-1.43,4-4.48V.44h6.13V12.52c0,7-4,10.12-10.21,10.12S157.62,19.5,157.62,12.67Z"/><path class="cls-1" d="M180.31,9.44c2.09-.22,3.21-1.24,3.11-2.93h-2.37V.44h6.13v5c0,4.61-2.49,6.2-6.38,6.32Z"/><path class="cls-1" d="M188.63.44h6.76l5,13.8,5-13.8h6.63l-8.84,22h-5.6Z"/><path class="cls-1" d="M214.05.44h17.53V5.57H220v3.3h10.46v4.77H220V17.1h11.71v5.14H214.05Z"/><path class="cls-1" d="M54.43,40.78v-.06c0-6.35,5-11.34,11.74-11.34A12.72,12.72,0,0,1,75,32.56l-3.55,4.27a7.69,7.69,0,0,0-5.26-2.06,5.73,5.73,0,0,0-5.57,6v.06a5.76,5.76,0,0,0,5.92,6A6.16,6.16,0,0,0,70,46V43.3h-4.3V38.88h10v9.81a14.74,14.74,0,0,1-9.47,3.36C59.51,52.06,54.43,47.38,54.43,40.78Z"/><path class="cls-1" d="M78.39,40.78v-.06A11.42,11.42,0,0,1,90.16,29.38c6.73,0,11.71,5,11.71,11.27v.06A11.42,11.42,0,0,1,90.1,52.06C83.38,52.06,78.39,47,78.39,40.78Zm17.31,0v-.06a5.67,5.67,0,0,0-5.6-5.89,5.56,5.56,0,0,0-5.51,5.82v.06a5.66,5.66,0,0,0,5.57,5.89A5.56,5.56,0,0,0,95.71,40.78Z"/><path class="cls-1" d="M109.42,35.12h-6.54V29.82H122v5.29h-6.54v16.5h-6Z"/><path class="cls-1" d="M133.42,29.82h6.07v21.8h-6.07Z"/><path class="cls-1" d="M148.81,35.12h-6.54V29.82h19.12v5.29h-6.54v16.5h-6Z"/><path class="cls-1" d="M167.28,39.32l.25-.28c3.61-.31,4.89-1.15,4.89-2.49v0c0-1.06-.84-1.71-2.34-1.71a7.14,7.14,0,0,0-4.55,2.06l-3.11-4.11a11,11,0,0,1,8.07-3.27c4.58,0,7.79,2.49,7.79,6.54v.06c0,3.92-2.62,5.6-6.07,6.45l-.37,2h-3.77Zm-.5,7h6.14v5.29h-6.14Z"/></g></g></svg>