<svg xmlns="http://www.w3.org/2000/svg" viewBox="0 0 134.13 19.28"><defs><style>.cls-1{fill:#cf2a33;}</style></defs><title>Text_CrackTheCode_300x250</title><g id="Layer_2" data-name="Layer 2"><g id="Layer_1-2" data-name="Layer 1"><path class="cls-1" d="M21.24,3.66v0A3.59,3.59,0,0,1,24.93,0a3.42,3.42,0,0,1,3,1.46L26.44,2.59a1.87,1.87,0,0,0-1.53-.82,1.73,1.73,0,0,0-1.67,1.85v0a1.73,1.73,0,0,0,1.67,1.87,1.91,1.91,0,0,0,1.58-.85l1.46,1a3.68,3.68,0,0,1-6.71-2Z"/><path class="cls-1" d="M28.78.14h3.31A3.06,3.06,0,0,1,34.37.9,2.17,2.17,0,0,1,35,2.53v0A2.21,2.21,0,0,1,33.55,4.7l1.67,2.44H33L31.57,5h-.85V7.14H28.78ZM32,3.5c.66,0,1-.32,1-.83v0c0-.55-.4-.83-1-.83H30.72V3.5Z"/><path class="cls-1" d="M38.27.09h1.87l3,7H41l-.51-1.25h-2.7l-.5,1.25h-2ZM40,4.38l-.78-2-.79,2Z"/><path class="cls-1" d="M43.1,3.66v0A3.59,3.59,0,0,1,46.79,0a3.42,3.42,0,0,1,3,1.46L48.3,2.59a1.87,1.87,0,0,0-1.53-.82A1.73,1.73,0,0,0,45.1,3.62v0a1.73,1.73,0,0,0,1.67,1.87,1.91,1.91,0,0,0,1.58-.85l1.46,1a3.68,3.68,0,0,1-6.71-2Z"/><path class="cls-1" d="M50.64.14h1.94V3L55,.14h2.3l-2.65,3,2.74,4H55.05l-1.76-2.6-.71.79V7.14H50.64Z"/><path class="cls-1" d="M62.42,1.84h-2.1V.14h6.14v1.7h-2.1v5.3H62.42Z"/><path class="cls-1" d="M67.31.14h1.94V2.76h2.49V.14h1.94v7H71.74V4.48H69.25V7.14H67.31Z"/><path class="cls-1" d="M74.92.14h5.63V1.79H76.84V2.85H80.2V4.38H76.84V5.49H80.6V7.14H74.92Z"/><path class="cls-1" d="M84.12,3.66v0A3.59,3.59,0,0,1,87.81,0a3.42,3.42,0,0,1,3,1.46L89.32,2.59a1.87,1.87,0,0,0-1.53-.82,1.73,1.73,0,0,0-1.67,1.85v0a1.73,1.73,0,0,0,1.67,1.87,1.91,1.91,0,0,0,1.58-.85l1.46,1a3.68,3.68,0,0,1-6.71-2Z"/><path class="cls-1" d="M91.22,3.66v0a3.77,3.77,0,0,1,7.54,0v0a3.77,3.77,0,0,1-7.54,0Zm5.56,0v0A1.82,1.82,0,0,0,95,1.75a1.78,1.78,0,0,0-1.77,1.87v0A1.82,1.82,0,0,0,95,5.53,1.78,1.78,0,0,0,96.78,3.66Z"/><path class="cls-1" d="M99.77.14h2.7c2.5,0,3.95,1.44,3.95,3.46v0c0,2-1.47,3.52-4,3.52H99.77Zm2.73,5.28a1.72,1.72,0,0,0,1.93-1.77v0a1.72,1.72,0,0,0-1.93-1.77h-.79V5.42Z"/><path class="cls-1" d="M107.42.14h5.63V1.79h-3.71V2.85h3.36V4.38h-3.36V5.49h3.76V7.14h-5.68Z"/><path class="cls-1" d="M2.1,13.84H0v-1.7H6.14v1.7H4v5.3H2.1Z"/><path class="cls-1" d="M6.45,15.66v0A3.67,3.67,0,0,1,10.23,12,3.63,3.63,0,0,1,14,15.62v0a3.67,3.67,0,0,1-3.78,3.64A3.63,3.63,0,0,1,6.45,15.66Zm5.56,0v0a1.82,1.82,0,0,0-1.8-1.89,1.78,1.78,0,0,0-1.77,1.87v0a1.82,1.82,0,0,0,1.79,1.89A1.78,1.78,0,0,0,12,15.66Z"/><path class="cls-1" d="M20.19,12.09h1.87l3,7H23l-.51-1.25h-2.7l-.5,1.25h-2Zm1.7,4.29-.78-2-.79,2Z"/><path class="cls-1" d="M24.16,12.14h2.17l1.59,4.43,1.59-4.43h2.13l-2.84,7H27Z"/><path class="cls-1" d="M31.63,15.66v0a3.77,3.77,0,0,1,7.54,0v0a3.77,3.77,0,0,1-7.54,0Zm5.56,0v0a1.82,1.82,0,0,0-1.8-1.89,1.78,1.78,0,0,0-1.77,1.87v0a1.82,1.82,0,0,0,1.79,1.89A1.78,1.78,0,0,0,37.18,15.66Z"/><path class="cls-1" d="M40.22,12.14h1.95v7H40.22Z"/><path class="cls-1" d="M43.45,12.14h2.7c2.5,0,3.95,1.44,3.95,3.46v0c0,2-1.47,3.52-4,3.52H43.45Zm2.73,5.28a1.72,1.72,0,0,0,1.93-1.77v0a1.72,1.72,0,0,0-1.93-1.77h-.79v3.56Z"/><path class="cls-1" d="M53.87,12.14h3.59a2.58,2.58,0,0,1,1.91.63,1.54,1.54,0,0,1,.45,1.13v0a1.62,1.62,0,0,1-1.08,1.56,1.7,1.7,0,0,1,1.39,1.71v0c0,1.2-1,1.93-2.65,1.93H53.87ZM57,14.93c.59,0,.92-.2.92-.61v0c0-.38-.3-.6-.88-.6H55.76v1.23Zm.28,2.65c.59,0,.93-.23.93-.64v0c0-.38-.3-.63-.95-.63H55.76v1.29Z"/><path class="cls-1" d="M61,12.14H63v5.3h3.39v1.7H61Z"/><path class="cls-1" d="M69.6,12.09h1.87l3,7H72.36l-.51-1.25h-2.7l-.5,1.25h-2Zm1.7,4.29-.78-2-.79,2Z"/><path class="cls-1" d="M74.43,15.66v0A3.59,3.59,0,0,1,78.12,12a3.42,3.42,0,0,1,3,1.46l-1.46,1.13a1.87,1.87,0,0,0-1.53-.82,1.73,1.73,0,0,0-1.67,1.85v0a1.73,1.73,0,0,0,1.67,1.87,1.91,1.91,0,0,0,1.58-.85l1.46,1a3.68,3.68,0,0,1-6.71-2Z"/><path class="cls-1" d="M82,12.14h1.94V15l2.41-2.84h2.3l-2.65,3,2.74,4H86.38l-1.76-2.6-.71.79v1.81H82Z"/><path class="cls-1" d="M89.31,12.14h1.95v7H89.31Z"/><path class="cls-1" d="M92.54,12.14h1.81l2.88,3.7v-3.7h1.92v7h-1.7l-3-3.84v3.84H92.54Z"/><path class="cls-1" d="M100.15,15.66v0A3.63,3.63,0,0,1,103.92,12a4.08,4.08,0,0,1,2.84,1l-1.14,1.37a2.47,2.47,0,0,0-1.69-.66,1.84,1.84,0,0,0-1.79,1.92v0a1.85,1.85,0,0,0,1.9,1.94,2,2,0,0,0,1.12-.29v-.85h-1.38V15H107V18.2a4.73,4.73,0,0,1-3,1.08A3.6,3.6,0,0,1,100.15,15.66Z"/><path class="cls-1" d="M110.61,15.66v0a3.77,3.77,0,0,1,7.54,0v0a3.77,3.77,0,0,1-7.54,0Zm5.56,0v0a1.82,1.82,0,0,0-1.8-1.89,1.78,1.78,0,0,0-1.77,1.87v0a1.82,1.82,0,0,0,1.79,1.89A1.78,1.78,0,0,0,116.17,15.66Z"/><path class="cls-1" d="M119.07,16.07V12.14h2V16c0,1,.51,1.49,1.29,1.49s1.29-.46,1.29-1.44V12.14h2V16c0,2.26-1.29,3.25-3.28,3.25A2.89,2.89,0,0,1,119.07,16.07Z"/><path class="cls-1" d="M128.45,13.84h-2.1v-1.7h6.14v1.7h-2.1v5.3h-1.94Z"/><path class="cls-1" d="M132.15,17.19h2v1.95h-2Z"/></g></g></svg>