<svg xmlns="http://www.w3.org/2000/svg" viewBox="0 0 74.37 19.28"><defs><style>.cls-1{fill:#cf2a33;}</style></defs><title>Text_ThinkYouveGotIt</title><g id="Layer_2" data-name="Layer 2"><g id="Layer_1-2" data-name="Layer 1"><path class="cls-1" d="M2.1,1.84H0V.14H6.14v1.7H4v5.3H2.1Z"/><path class="cls-1" d="M7,.14H8.93V2.76h2.49V.14h1.94v7H11.42V4.48H8.93V7.14H7Z"/><path class="cls-1" d="M14.64.14h1.95v7H14.64Z"/><path class="cls-1" d="M17.87.14h1.81l2.88,3.7V.14h1.92v7h-1.7l-3-3.84V7.14H17.87Z"/><path class="cls-1" d="M25.72.14h1.94V3L30.07.14h2.3l-2.65,3,2.74,4H30.13l-1.76-2.6-.71.79V7.14H25.72Z"/><path class="cls-1" d="M37.81,4.52,35.15.14h2.21L38.8,2.69,40.25.14h2.17L39.76,4.49V7.14H37.81Z"/><path class="cls-1" d="M42.13,3.66v0a3.77,3.77,0,0,1,7.54,0v0a3.77,3.77,0,0,1-7.54,0Zm5.56,0v0a1.82,1.82,0,0,0-1.8-1.89,1.78,1.78,0,0,0-1.77,1.87v0a1.82,1.82,0,0,0,1.79,1.89A1.78,1.78,0,0,0,47.68,3.66Z"/><path class="cls-1" d="M50.59,4.07V.14h2V4c0,1,.51,1.49,1.29,1.49s1.29-.46,1.29-1.44V.14h2V4c0,2.26-1.29,3.25-3.28,3.25A2.89,2.89,0,0,1,50.59,4.07Z"/><path class="cls-1" d="M57.87,3c.67-.07,1-.4,1-.94h-.76V.14h2V1.73c0,1.48-.8,2-2,2Z"/><path class="cls-1" d="M60.54.14h2.17L64.3,4.57,65.88.14H68l-2.84,7h-1.8Z"/><path class="cls-1" d="M68.7.14h5.63V1.79H70.62V2.85H74V4.38H70.62V5.49h3.76V7.14H68.7Z"/><path class="cls-1" d="M17.47,15.66v0A3.63,3.63,0,0,1,21.24,12a4.08,4.08,0,0,1,2.84,1l-1.14,1.37a2.47,2.47,0,0,0-1.69-.66,1.84,1.84,0,0,0-1.79,1.92v0a1.85,1.85,0,0,0,1.9,1.94,2,2,0,0,0,1.12-.29v-.85H21.1V15h3.22V18.2a4.73,4.73,0,0,1-3,1.08A3.6,3.6,0,0,1,17.47,15.66Z"/><path class="cls-1" d="M25.16,15.66v0a3.77,3.77,0,0,1,7.54,0v0a3.77,3.77,0,0,1-7.54,0Zm5.56,0v0a1.82,1.82,0,0,0-1.8-1.89,1.78,1.78,0,0,0-1.77,1.87v0a1.82,1.82,0,0,0,1.79,1.89A1.78,1.78,0,0,0,30.72,15.66Z"/><path class="cls-1" d="M35.12,13.84H33v-1.7h6.14v1.7h-2.1v5.3H35.12Z"/><path class="cls-1" d="M42.82,12.14h1.95v7H42.82Z"/><path class="cls-1" d="M47.76,13.84h-2.1v-1.7H51.8v1.7H49.7v5.3H47.76Z"/><path class="cls-1" d="M53.69,15.19l.08-.09c1.16-.1,1.57-.37,1.57-.8h0c0-.34-.27-.55-.75-.55a2.29,2.29,0,0,0-1.46.66l-1-1.32a3.51,3.51,0,0,1,2.59-1c1.47,0,2.5.8,2.5,2.1v0c0,1.26-.84,1.8-1.95,2.07l-.12.64H53.94Zm-.16,2.25h2v1.7h-2Z"/></g></g></svg>