<svg xmlns="http://www.w3.org/2000/svg" viewBox="0 0 409.9 22.24"><defs><style>.cls-1{fill:#cf2a33;}</style></defs><title>Text_ToAvoidBlackingOut</title><g id="Layer_2" data-name="Layer 2"><g id="Layer_1-2" data-name="Layer 1"><path class="cls-1" d="M6.41,5.62H0V.43H18.75V5.62H12.34V21.81H6.41Z"/><path class="cls-1" d="M19.71,11.18v-.06A11.2,11.2,0,0,1,31.25,0,11.1,11.1,0,0,1,42.74,11.06v.06A11.2,11.2,0,0,1,31.19,22.24,11.1,11.1,0,0,1,19.71,11.18Zm17,0v-.06a5.56,5.56,0,0,0-5.5-5.77,5.45,5.45,0,0,0-5.41,5.71v.06a5.55,5.55,0,0,0,5.47,5.77A5.45,5.45,0,0,0,36.69,11.18Z"/><path class="cls-1" d="M61.69.27H67.4l9.1,21.53H70.15L68.6,18H60.35l-1.53,3.82H52.59Zm5.19,13.1L64.5,7.3l-2.41,6.08Z"/><path class="cls-1" d="M73.83.43h6.63L85.31,14,90.17.43h6.51L88,22H82.5Z"/><path class="cls-1" d="M96.65,11.18v-.06a11.52,11.52,0,0,1,23-.06v.06a11.52,11.52,0,0,1-23,.06Zm17,0v-.06a5.56,5.56,0,0,0-5.5-5.77,5.45,5.45,0,0,0-5.41,5.71v.06a5.55,5.55,0,0,0,5.47,5.77A5.45,5.45,0,0,0,113.63,11.18Z"/><path class="cls-1" d="M122.9.43h6V21.81h-6Z"/><path class="cls-1" d="M132.77.43H141c7.63,0,12.06,4.4,12.06,10.57v.06c0,6.17-4.49,10.75-12.19,10.75h-8.12Zm8.34,16.13c3.54,0,5.9-2,5.9-5.41v-.06c0-3.42-2.35-5.41-5.9-5.41h-2.41V16.55Z"/><path class="cls-1" d="M164.61.43h11c2.69,0,4.58.67,5.83,1.92a4.68,4.68,0,0,1,1.38,3.45v.06a5,5,0,0,1-3.3,4.76c2.6.86,4.25,2.32,4.25,5.22v.06c0,3.67-3,5.9-8.09,5.9h-11Zm9.5,8.52c1.8,0,2.81-.61,2.81-1.86V7c0-1.16-.92-1.83-2.69-1.83h-3.85V8.95ZM175,17c1.8,0,2.84-.7,2.84-2V15c0-1.16-.92-1.92-2.9-1.92h-4.52V17Z"/><path class="cls-1" d="M186.46.43h5.93V16.62h10.35v5.19H186.46Z"/><path class="cls-1" d="M212.68.27h5.71l9.1,21.53h-6.35L219.58,18h-8.25l-1.53,3.82h-6.23Zm5.19,13.1L215.49,7.3l-2.41,6.08Z"/><path class="cls-1" d="M227.47,11.18v-.06A11,11,0,0,1,238.74,0a10.47,10.47,0,0,1,9.07,4.46l-4.46,3.45a5.72,5.72,0,0,0-4.67-2.5c-3,0-5.1,2.54-5.1,5.65v.06c0,3.21,2.11,5.71,5.1,5.71,2.23,0,3.54-1,4.83-2.6L248,17.41a11.26,11.26,0,0,1-20.49-6.23Z"/><path class="cls-1" d="M250.51.43h5.93V9.1L263.8.43h7l-8.09,9.19,8.37,12.19H264l-5.38-7.94-2.17,2.41v5.53h-5.93Z"/><path class="cls-1" d="M272.94.43h6V21.81h-6Z"/><path class="cls-1" d="M282.81.43h5.53l8.8,11.3V.43H303V21.81H297.8l-9.13-11.73V21.81h-5.86Z"/><path class="cls-1" d="M306.06,11.18v-.06C306.06,4.89,311,0,317.58,0a12.47,12.47,0,0,1,8.67,3.12L322.77,7.3a7.54,7.54,0,0,0-5.16-2,5.62,5.62,0,0,0-5.47,5.86v.06a5.65,5.65,0,0,0,5.8,5.93,6,6,0,0,0,3.42-.89v-2.6h-4.21V9.32H327v9.62a14.46,14.46,0,0,1-9.28,3.3C311,22.24,306.06,17.65,306.06,11.18Z"/><path class="cls-1" d="M338,11.18v-.06a11.52,11.52,0,0,1,23-.06v.06a11.52,11.52,0,0,1-23,.06Zm17,0v-.06a5.56,5.56,0,0,0-5.5-5.77,5.45,5.45,0,0,0-5.41,5.71v.06a5.55,5.55,0,0,0,5.47,5.77A5.45,5.45,0,0,0,355,11.18Z"/><path class="cls-1" d="M363.88,12.43V.43h6V12.31c0,3.09,1.56,4.55,3.94,4.55s3.94-1.41,3.94-4.4V.43h6V12.28c0,6.9-3.94,9.93-10,9.93S363.88,19.12,363.88,12.43Z"/><path class="cls-1" d="M392.54,5.62h-6.41V.43h18.75V5.62h-6.41V21.81h-5.93Z"/><path class="cls-1" d="M403.85,15.85h6v6h-6Z"/></g></g></svg>